<svg height="114" width="138" xmlns="http://www.w3.org/2000/svg" xmlns:xlink="http://www.w3.org/1999/xlink"><defs><filter id="a" height="135%" width="106.7%" x="-3.3%" y="-17.5%"><feOffset dy="10" in="SourceAlpha" result="shadowOffsetOuter1"/><feGaussianBlur in="shadowOffsetOuter1" result="shadowBlurOuter1" stdDeviation="5"/><feColorMatrix in="shadowBlurOuter1" result="shadowMatrixOuter1" values="0 0 0 0 0.841230752 0 0 0 0 0.834562459 0 0 0 0 0.834562459 0 0 0 0.29963396 0"/><feMerge><feMergeNode in="shadowMatrixOuter1"/><feMergeNode in="SourceGraphic"/></feMerge></filter><path id="b" d="m7.2 0h28.8l7.2 39.6h-43.2z"/><mask id="c" fill="#fff"><use fill="#fff" fill-rule="evenodd" xlink:href="#b"/></mask></defs><g fill="none" fill-rule="evenodd" filter="url(#a)" transform="translate(-30 -63)"><g transform="translate(39 63)"><path d="m86 49h16v44h-16z" fill="#76baff"/><path d="m102 72v2h-9v-2zm0-8v2h-9v-2zm0-8v2h-9v-2z" fill="#1a8cff"/><path d="m86 49h8v44h-8z" fill="#1a8cff"/><g fill-rule="nonzero"><path d="m73.04 21a.36.36 0 0 1 .36.36v12.24h-.72v-12.24a.36.36 0 0 1 .36-.36z" fill="#b8bdcc"/><path d="m65.19 21.72h7.49v5.76h-7.483a.36.36 0 0 1 -.27-.598l1.785-2.025a.36.36 0 0 0 .001-.474l-1.795-2.067a.36.36 0 0 1 .272-.596z" fill="#1a8cff"/><g transform="translate(51.44 51.6)"><use fill="#dadde6" xlink:href="#b"/><path d="m6.12 29.52a.72.72 0 0 1 .72.72v2.16a.72.72 0 0 1 -.72.72h-6.48a.72.72 0 0 1 -.72-.72v-2.16a.72.72 0 0 1 .72-.72zm37.8-1.08a.72.72 0 0 1 .72.72v2.16a.72.72 0 0 1 -.72.72h-6.48a.72.72 0 0 1 -.72-.72v-2.16a.72.72 0 0 1 .72-.72zm-40.68-3.6a.72.72 0 0 1 .72.72v2.16a.72.72 0 0 1 -.72.72h-6.48a.72.72 0 0 1 -.72-.72v-2.16a.72.72 0 0 1 .72-.72zm41.4-8.28a.72.72 0 0 1 .72.72v2.16a.72.72 0 0 1 -.72.72h-6.48a.72.72 0 0 1 -.72-.72v-2.16a.72.72 0 0 1 .72-.72zm-34.2-11.88a.72.72 0 0 1 .72.72v2.16a.72.72 0 0 1 -.72.72h-6.48a.72.72 0 0 1 -.72-.72v-2.16a.72.72 0 0 1 .72-.72z" fill="#f3f3f3" mask="url(#c)"/></g><path d="m50.72 90.84h44.64a.72.72 0 0 1 .72.72v1.44h-46.08v-1.44a.72.72 0 0 1 .72-.72z" fill="#b8bdcc"/><path d="m73.04 62.76a7.56 7.56 0 0 1 3.558 14.232l4.002 16.008h-15.12l4.001-16.008a7.56 7.56 0 0 1 3.559-14.232z" fill="#a1a5b3"/><path d="m55.76 45.48h34.56l-2.88 6.12h-28.8z" fill="#b8bdcc"/><path d="m63.32 33.6a.72.72 0 0 1 .72.72v6.48h5.04v-6.48a.72.72 0 0 1 .72-.72h6.48a.72.72 0 0 1 .72.72v6.48h5.04v-6.48a.72.72 0 0 1 .72-.72h6.84a.72.72 0 0 1 .72.72v11.16h-34.56v-11.16a.72.72 0 0 1 .72-.72z" fill="#dadde6"/></g><path d="m12 26h42v68h-42z" fill="#06c"/><path d="m30 26h24v68h-24z" fill="#f8d772"/><path d="m54 86v2h-24v-2zm0-6v2h-24v-2zm0-6v2h-24v-2zm0-6v2h-24v-2zm0-6v2h-24v-2zm0-6v2h-24v-2zm0-6v2h-24v-2zm0-6v2h-24v-2zm0-6v2h-24v-2zm0-6v2h-24v-2zm-35-14h30v8h-30zm6-4h17v4h-17z" fill="#06c"/><path d="m9 50h16v43h-16z" fill="#76baff"/><path d="m9 50h12v43h-12z" fill="#1a8cff"/><path d="m102 94v-15h13v6h4v9zm-101-9h13v9h-13z" fill="#439d6d"/><rect fill="#c4cdd5" height="1" rx=".5" width="120" y="93"/><circle cx="108" cy="6" fill="#f8d772" r="6"/></g></g></svg>