<svg xmlns="http://www.w3.org/2000/svg" width="29" height="32"><g fill="none" fill-rule="evenodd"><path stroke="#0572ec" stroke-linecap="square" stroke-width="2" d="M16 4a3 3 0 10-6 0H7v4h12V4h-3z"/><path stroke="#0572ec" stroke-linecap="round" stroke-width="2" d="M22 5h2a1 1 0 011 1v10.06M15.09 31H2a1 1 0 01-1-1V6a1 1 0 011-1h2"/><path fill="#0572ec" fill-rule="nonzero" d="M14 19a1 1 0 010 2H6a1 1 0 010-2zm6-6a1 1 0 010 2H6a1 1 0 010-2zm3 6a6 6 0 100 12 6 6 0 000-12z"/><path fill="#FFF" fill-rule="nonzero" d="M26 26h-6v-2h6z"/></g></svg>