<svg xmlns="http://www.w3.org/2000/svg" width="334" height="56"><g fill="none" fill-rule="evenodd"><path fill="#FFF" d="M190.206 28.212c0 15.18-12.386 27.485-27.665 27.485-15.28 0-27.665-12.305-27.665-27.485S147.262.727 162.54.727s27.665 12.305 27.665 27.485"/><path fill="#143658" d="M144.67 21.45h4.476l-2.207-5.957h-.046l-2.222 5.958zm4.772.81h-5.075l-1.142 3.07h-.944l4.209-11.009h.86l4.178 11.008h-.944l-1.142-3.07zm3.824 3.069h.914V14.321h-.914zm11.496-3.439l.015.044c-.096 1.104-.492 1.973-1.187 2.605-.695.633-1.626.949-2.793.949-1.233 0-2.227-.442-2.983-1.327-.756-.885-1.134-2.03-1.134-3.436v-1.792c0-1.401.378-2.547 1.134-3.436.756-.89 1.75-1.335 2.983-1.335 1.177 0 2.11.31 2.8.93.69.62 1.084 1.492 1.18 2.616l-.015.046h-.853c-.122-.913-.437-1.61-.947-2.095-.51-.484-1.232-.726-2.165-.726-.97 0-1.747.373-2.333 1.119-.586.745-.878 1.7-.878 2.863v1.805c0 1.179.292 2.14.878 2.882.586.743 1.364 1.115 2.333 1.115.933 0 1.656-.237 2.169-.709.512-.473.827-1.179.943-2.119h.853zm3.108-1.906h2.907c.914 0 1.6-.23 2.059-.692.46-.461.689-1.042.689-1.742 0-.706-.229-1.292-.685-1.758-.457-.467-1.144-.7-2.063-.7h-2.906v4.892zm0 .771v4.574h-.905V14.321h3.812c1.162 0 2.062.294 2.698.88.637.588.955 1.366.955 2.333 0 .978-.318 1.76-.955 2.344-.636.585-1.536.877-2.698.877h-2.906zm8.71.695h4.475l-2.207-5.957h-.046l-2.222 5.958zm4.772.81h-5.076l-1.142 3.07h-.943l4.208-11.009h.86l4.178 11.008h-.944l-1.141-3.07zm-25.468 18.244a1.83 1.83 0 00-.677-1.468c-.452-.38-1.238-.716-2.359-1.008-1.213-.302-2.131-.695-2.755-1.179-.624-.484-.936-1.136-.936-1.958 0-.842.349-1.527 1.047-2.057.697-.529 1.594-.793 2.69-.793 1.141 0 2.062.315 2.762.945.7.63 1.04 1.398 1.02 2.306l-.023.045h-.837c0-.736-.263-1.34-.788-1.815-.525-.473-1.236-.71-2.134-.71-.888 0-1.582.196-2.082.59-.5.393-.75.882-.75 1.466 0 .555.231 1.017.693 1.388.462.37 1.258.696 2.39.979 1.192.302 2.099.71 2.72 1.225.622.514.933 1.191.933 2.033 0 .877-.362 1.575-1.085 2.094-.723.52-1.645.779-2.766.779-1.106 0-2.071-.276-2.896-.828-.824-.552-1.224-1.357-1.198-2.415l.015-.046h.837c0 .855.322 1.488.967 1.9.644.412 1.402.618 2.275.618.877 0 1.587-.191 2.127-.574.54-.382.81-.888.81-1.517m10.057-3.702c0-1.191-.303-2.15-.91-2.877-.605-.727-1.447-1.09-2.522-1.09-1.055 0-1.877.363-2.466 1.09-.588.727-.883 1.686-.883 2.877v1.81c0 1.201.296 2.166.887 2.892.591.728 1.414 1.09 2.47 1.09 1.08 0 1.921-.361 2.522-1.086.601-.724.902-1.69.902-2.896v-1.81zm.906 1.801c0 1.421-.392 2.57-1.176 3.448-.784.877-1.835 1.315-3.154 1.315-1.3 0-2.335-.438-3.11-1.315-.773-.877-1.16-2.027-1.16-3.448v-1.792c0-1.416.386-2.565 1.157-3.447.771-.882 1.806-1.323 3.105-1.323 1.32 0 2.372.44 3.158 1.323.786.882 1.18 2.03 1.18 3.447v1.792zm9.873 1.164l.016.046c-.096 1.104-.492 1.972-1.187 2.604-.695.633-1.626.95-2.793.95-1.233 0-2.227-.443-2.983-1.328-.756-.884-1.134-2.03-1.134-3.436v-1.792c0-1.401.378-2.546 1.134-3.436.756-.89 1.75-1.334 2.983-1.334 1.177 0 2.11.31 2.8.93.69.62 1.084 1.492 1.18 2.615l-.015.046h-.852c-.122-.912-.438-1.61-.948-2.094-.51-.484-1.232-.726-2.165-.726-.97 0-1.746.373-2.332 1.118-.587.745-.88 1.7-.88 2.863V38.6c0 1.178.293 2.139.88 2.882.586.742 1.363 1.114 2.332 1.114.933 0 1.656-.236 2.169-.709.512-.472.827-1.178.944-2.119h.852z"/><path stroke="#143658" stroke-linecap="round" stroke-linejoin="round" stroke-width=".5" d="M141.462 28.907h42.234"/><g fill="#FFF"><path d="M27.409 25.919l-6.607 6.748a1.35 1.35 0 01-.836.353h-.57c-.27 0-.646-.16-.836-.353l-3.112-3.185a.508.508 0 01.001-.707l1.225-1.247a.485.485 0 01.693-.001l1.988 2.021c.19.195.502.194.693 0l5.448-5.565a.486.486 0 01.693-.002l1.218 1.233c.191.193.192.51.002.705z"/><path d="M21.429 7l.694 2.247h2.247l-1.818 1.388.694 2.247-1.817-1.39-1.818 1.39.695-2.247-1.819-1.388h2.247zm0 36.975l.694 2.247h2.247l-1.818 1.389.694 2.246-1.817-1.388-1.818 1.388.695-2.246-1.819-1.389h2.247zm9.243-33.614l.694 2.247h2.247l-1.818 1.39.695 2.246-1.818-1.39-1.818 1.39.695-2.247-1.818-1.389h2.247zm7.474 24.19l.693 2.248h2.247l-1.817 1.388.694 2.246-1.817-1.388-1.818 1.388.694-2.246-1.818-1.388h2.247zm1.77-9.064l.694 2.247h2.247l-1.818 1.389.695 2.247-1.818-1.388-1.818 1.388.695-2.247-1.818-1.389h2.246zm-36.974 0l.694 2.247h2.246l-1.818 1.389.695 2.247-1.817-1.388-1.818 1.388.694-2.247L0 27.734h2.247zm1.53 9.064l.694 2.248h2.247l-1.818 1.388.694 2.246-1.817-1.388-1.818 1.388.695-2.246L1.53 36.8h2.247zm33.674-18.367l.693 2.247h2.247L39.27 19.82l.694 2.246-1.817-1.388-1.818 1.388.694-2.246-1.818-1.389h2.247zm-32.908 0l.693 2.247h2.247L6.361 19.82l.694 2.246-1.817-1.388-1.818 1.388.694-2.246-1.818-1.389h2.247zm27.115 26.11l.694 2.247h2.247l-1.818 1.389.695 2.246-1.818-1.388-1.818 1.388.695-2.246-1.818-1.39h2.247zM12.185 10.361l.694 2.247h2.247l-1.818 1.39.695 2.246-1.818-1.39-1.818 1.39.695-2.247-1.818-1.389h2.246zm-1.681 31.933l.694 2.248h2.247l-1.817 1.388.694 2.246-1.818-1.387-1.817 1.387.694-2.246-1.818-1.388H9.81z" fill-rule="nonzero"/><path d="M48.98 29.39c0 4.352 3.334 7.082 7.43 7.082 2.592 0 4.589-1.047 6.07-2.669v-5.358h-6.627v2.936h3.15v1.15c-.556.451-1.524.82-2.594.82-2.243 0-3.828-1.724-3.828-3.962 0-2.238 1.585-3.962 3.828-3.962 1.297 0 2.346.718 2.902 1.622l2.964-1.56c-1.009-1.705-2.861-3.183-5.866-3.183-4.095 0-7.43 2.73-7.43 7.083zm15.579 6.836V22.532h5.762c4.322 0 7.43 2.587 7.43 6.837s-3.108 6.857-7.409 6.857h-5.783zm3.54-3.08h2.222c2.408 0 3.808-1.745 3.808-3.777 0-2.115-1.276-3.757-3.787-3.757h-2.243v7.534zm11.422 3.08V22.532h6.874c3.087 0 4.774 2.074 4.774 4.558 0 2.464-1.687 4.496-4.774 4.496H83.06v4.64h-3.54zm8.047-9.157c0-.944-.7-1.56-1.647-1.56h-2.86v3.08h2.86c.947 0 1.647-.596 1.647-1.52zm12.842 9.157l-2.305-4.64h-1.811v4.64h-3.54V22.532h6.874c3.046 0 4.775 2.012 4.775 4.558 0 2.381-1.462 3.654-2.738 4.106l2.8 5.03h-4.055zm.391-9.177c0-.945-.782-1.54-1.708-1.54h-2.8v3.08h2.8c.926 0 1.708-.596 1.708-1.54z"/></g><g fill="#FFF"><path fill-rule="nonzero" d="M221.457 27.467h2.827v-.604c0-.23-.015-.431-.03-.575-.014-.144-.029-.216-.029-.216h.044l.131.173c.131.158.262.288.408.417a4.336 4.336 0 001.705.906 5.16 5.16 0 001.326.173c.757 0 1.5-.144 2.2-.446a4.864 4.864 0 001.748-1.251 5.799 5.799 0 001.151-1.956c.277-.82.408-1.683.394-2.546a8.225 8.225 0 00-.364-2.517 5.58 5.58 0 00-1.064-1.956 4.643 4.643 0 00-1.676-1.265 5.236 5.236 0 00-2.2-.446c-.451 0-.903.057-1.34.172a4.47 4.47 0 00-1.72.906c-.145.13-.276.26-.408.417l-.13.173h-.044s.014-.1.029-.288c.014-.187.014-.417.029-.719v-3.437c0-.546-.131-.95-.379-1.194s-.67-.388-1.224-.388H220v2.502h.947a.457.457 0 01.51.389v13.576zm2.885-5.839a4.81 4.81 0 01.262-1.697 3.35 3.35 0 01.67-1.165 2.83 2.83 0 01.962-.676 2.99 2.99 0 011.122-.215 2.86 2.86 0 011.559.46c.466.33.83.776 1.05 1.294a5.143 5.143 0 01.13 3.524c-.146.417-.364.82-.655 1.15a2.803 2.803 0 01-.962.72 2.738 2.738 0 01-3.395-.892 3.901 3.901 0 01-.554-1.165 5.202 5.202 0 01-.19-1.338zm11.685 1.64c0 1.078.175 1.941.51 2.603a3.088 3.088 0 001.428 1.453 5.42 5.42 0 003.657.215c.423-.13.83-.316 1.195-.56.335-.216.641-.49.918-.792.233-.273.437-.575.597-.906h.044s0 .058-.015.159c-.014.1-.029.23-.029.373v.331c-.029.374.131.72.408.978.263.23.656.345 1.18.345h2.74v-2.473h-.933a.474.474 0 01-.524-.417v-8.932h-2.987v5.422a5.26 5.26 0 01-.219 1.51c-.145.46-.364.892-.655 1.266a3.059 3.059 0 01-2.492 1.208c-.495 0-.874-.1-1.136-.302a1.558 1.558 0 01-.569-.848 4.641 4.641 0 01-.16-1.266v-5.436c0-.532-.117-.92-.379-1.18-.262-.259-.655-.374-1.21-.374h-2.826v2.503h.933c.247-.043.48.13.524.374v4.746zm13.842-2c0 .777.117 1.554.364 2.302.219.69.583 1.337 1.05 1.898a4.808 4.808 0 001.69 1.295c.713.33 1.5.489 2.287.474a4.863 4.863 0 002.01-.388 3.36 3.36 0 001.327-1.136h.043v.1c0 .072 0 .144-.014.245-.015.1-.015.187-.015.288v1.078a3.07 3.07 0 01-.277 1.352 2.21 2.21 0 01-.743.892 3.2 3.2 0 01-1.078.503c-.408.1-.816.144-1.238.144v2.56c.612 0 1.224-.072 1.82-.187a7.17 7.17 0 001.72-.604 5.19 5.19 0 001.428-1.064c.423-.46.758-.993.962-1.582.247-.69.364-1.41.364-2.143v-8.673c0-.129.044-.258.146-.345a.5.5 0 01.378-.115h.918v-2.517h-2.768c-.262 0-.524.044-.758.159-.174.086-.32.23-.422.402a1.047 1.047 0 00-.131.518v.316h-.044s-.044-.057-.117-.172a5.177 5.177 0 00-.378-.417 3.282 3.282 0 00-.685-.49 4.688 4.688 0 00-1.05-.416 6.21 6.21 0 00-1.456-.173 5.423 5.423 0 00-2.288.46c-.64.288-1.21.72-1.66 1.266a5.72 5.72 0 00-1.02 1.87 7.641 7.641 0 00-.35 2.286l-.015.015zm6.018 3.496a2.847 2.847 0 01-1.632-.475 2.827 2.827 0 01-1.006-1.28 5.056 5.056 0 01-.35-1.855 4.447 4.447 0 01.321-1.74c.19-.475.525-.863.947-1.151.452-.288.991-.417 1.53-.417.394 0 .772.043 1.151.158.35.1.685.288.947.547.292.287.525.647.641 1.035.175.547.248 1.107.233 1.668a5.433 5.433 0 01-.233 1.669A2.703 2.703 0 01257.81 24a2.422 2.422 0 01-.889.576 3.643 3.643 0 01-1.034.187zm8.377-3.208c0 .82.146 1.64.452 2.417a5.803 5.803 0 001.311 1.97 6.135 6.135 0 002.04 1.323c.86.33 1.763.489 2.681.489.598 0 1.195-.072 1.778-.216.48-.13.961-.302 1.413-.532a6.69 6.69 0 001.02-.633 5.53 5.53 0 00.627-.532l.218-.216-1.238-2.042-.175.173a6.68 6.68 0 01-.496.403c-.233.172-.495.33-.757.474a5.794 5.794 0 01-.976.403 3.916 3.916 0 01-1.152.172c-.48 0-.947-.072-1.398-.23a3.546 3.546 0 01-1.195-.69 3.197 3.197 0 01-.83-1.136 3.695 3.695 0 01-.306-1.582c0-.662.16-1.323.466-1.913a3.428 3.428 0 011.238-1.294 3.58 3.58 0 011.836-.49c.19 0 .393.015.583.058.19.029.379.086.554.173.16.072.306.158.422.287.102.115.16.26.16.417v.648h2.623v-1.395c0-.374-.102-.748-.306-1.065a2.636 2.636 0 00-.787-.762 4.791 4.791 0 00-1.063-.503 7.873 7.873 0 00-1.151-.274c-.35-.057-.7-.071-1.05-.086a7.19 7.19 0 00-2.753.503 5.828 5.828 0 00-3.351 3.323 6.118 6.118 0 00-.438 2.358zm13.828 5.911h2.972v-4.674c0-.33.03-.676.073-1.007.044-.316.102-.618.19-.92a3.72 3.72 0 01.553-1.136 3.288 3.288 0 011.734-1.208c.32-.087.64-.144.976-.144.175 0 .35 0 .525.029a.87.87 0 01.203.028V15.53c-.058-.014-.116-.014-.174-.028a3.107 3.107 0 00-.365-.03c-.582 0-1.165.145-1.675.403-.51.274-.962.633-1.312 1.08-.364.46-.64.977-.815 1.538h-.044s.014-.072.029-.201c.015-.13.015-.317.03-.532v-.69c0-.504-.132-.864-.409-1.094-.277-.23-.67-.345-1.195-.345h-2.724v2.502h.947a.48.48 0 01.524.389v.13l-.043 8.815zm8.042-5.91c0 .862.175 1.71.51 2.502.32.733.802 1.41 1.4 1.956.597.56 1.31.992 2.083 1.28a7.484 7.484 0 005.128 0 6.416 6.416 0 002.099-1.28 5.935 5.935 0 001.413-1.956 6.353 6.353 0 000-5.005 5.895 5.895 0 00-1.399-1.956 6.269 6.269 0 00-2.098-1.28 7.32 7.32 0 00-5.129 0 6.206 6.206 0 00-2.083 1.28 5.98 5.98 0 00-1.399 1.956 6.171 6.171 0 00-.525 2.502zm3.016 0c0-.518.088-1.022.277-1.496.175-.432.437-.835.773-1.165a3.513 3.513 0 012.506-1.021 3.514 3.514 0 013.292 2.186c.19.474.292.978.277 1.495 0 .518-.087 1.021-.277 1.51a3.477 3.477 0 01-.772 1.165c-.32.317-.714.576-1.136.748a3.766 3.766 0 01-1.384.274c-.933 0-1.836-.36-2.506-1.022a3.477 3.477 0 01-.773-1.165 4.139 4.139 0 01-.277-1.51zm14.731 5.91h3.395l2.025-6.76c.058-.215.117-.416.16-.603.044-.187.073-.36.102-.475.03-.115.03-.187.03-.187h.043s.015.072.03.187a4.9 4.9 0 00.087.475c.044.187.102.402.16.604l2.04 6.76h3.366l2.87-8.903a.666.666 0 01.248-.345.794.794 0 01.408-.072h.335v-2.503h-2.04c-.48-.014-.86.087-1.122.26-.262.186-.452.503-.568.948l-1.734 6.559a5.686 5.686 0 00-.131.604c-.03.187-.058.345-.073.46-.015.115-.03.187-.03.187h-.043s0-.072-.029-.187c-.03-.115-.044-.273-.087-.46-.044-.187-.088-.389-.146-.604l-2.23-7.723h-2.637l-2.214 7.723c-.059.215-.117.417-.16.604-.044.187-.073.345-.103.46-.029.115-.029.187-.029.187h-.058s-.015-.072-.03-.187c-.014-.115-.043-.273-.072-.46a5.686 5.686 0 00-.131-.604l-1.763-6.559c-.117-.445-.292-.762-.568-.949-.277-.187-.641-.273-1.122-.259h-2.04v2.503h.335a.849.849 0 01.423.072.572.572 0 01.233.345l2.87 8.902zm16.056-5.91c0 .848.117 1.696.38 2.516.218.72.597 1.38 1.077 1.956a4.85 4.85 0 001.676 1.28c.7.302 1.443.46 2.2.446.496 0 .976-.058 1.443-.201a4.324 4.324 0 001.049-.475 3.894 3.894 0 001.107-1.05 2.45 2.45 0 00.131-.201h.044v.446c0 .215.044.431.146.618s.276.345.466.432c.277.115.568.172.86.158h2.753v-2.488h-.918a.452.452 0 01-.51-.417V12.582c0-.546-.116-.95-.378-1.194-.263-.244-.656-.388-1.21-.388h-2.841v2.502h.947a.457.457 0 01.51.518v2.086c0 .201 0 .374.015.489.014.115.014.2.014.2h-.058a.564.564 0 00-.117-.143c-.102-.13-.233-.244-.35-.36a3.122 3.122 0 00-.64-.43 4.666 4.666 0 00-.977-.36 5.474 5.474 0 00-1.37-.144 5.4 5.4 0 00-2.185.446 5.087 5.087 0 00-1.734 1.236 5.496 5.496 0 00-1.122 1.956 7.984 7.984 0 00-.408 2.56zm6.003 3.696a2.64 2.64 0 01-1.559-.46 2.888 2.888 0 01-1.034-1.28 5.23 5.23 0 01-.131-3.524c.13-.417.364-.806.64-1.15a2.847 2.847 0 012.128-.95c.452 0 .903.1 1.311.302.365.201.685.489.918.82.248.36.437.748.554 1.165.117.431.175.891.175 1.337a5.07 5.07 0 01-.248 1.683 3.35 3.35 0 01-.67 1.165 2.61 2.61 0 01-.962.661 2.384 2.384 0 01-1.122.23z"/><path d="M222.795 45.81h-.633v-1.017a3.515 3.515 0 01-1.15-.26 3.452 3.452 0 01-1.012-.607l.72-1.03c.216.207.454.373.715.496.26.124.503.19.727.199v-2.64c-.265-.1-.52-.215-.764-.348a2.692 2.692 0 01-.646-.483 2.168 2.168 0 01-.448-.682c-.111-.264-.167-.582-.167-.954s.053-.703.161-.992a2.23 2.23 0 01.447-.744c.19-.206.41-.367.659-.483.248-.116.517-.186.807-.21v-.992h.634v.979c.356.008.71.074 1.062.198.352.124.665.318.938.583l-.67 1.004a2.077 2.077 0 00-.61-.434 1.648 1.648 0 00-.72-.174v2.542c.273.115.538.24.795.371.257.133.482.296.677.49.195.194.352.428.472.7.12.273.18.608.18 1.004 0 .372-.054.707-.161 1.005a2.223 2.223 0 01-.454.762 2.164 2.164 0 01-1.56.7l.001 1.017zm-.609-8.578c-.198.025-.38.134-.546.328-.166.194-.249.465-.249.812 0 .182.021.335.063.459a1.007 1.007 0 00.416.552c.095.061.2.117.316.167v-2.318zm1.491 5.156c0-.371-.085-.646-.254-.824a1.97 1.97 0 00-.603-.428v2.467a.876.876 0 00.609-.347c.165-.206.248-.496.248-.868zm3.96 2.418v-7.054l-1.467 1.104-.67-1.153 2.26-1.674h1.33v8.777h-1.454zm8.22-4.389c0 .505-.036 1.025-.106 1.562a5.44 5.44 0 01-.398 1.475 2.879 2.879 0 01-.814 1.098c-.347.285-.795.427-1.341.427-.547 0-.992-.142-1.336-.427a2.966 2.966 0 01-.813-1.098 5.299 5.299 0 01-.404-1.475 12.02 12.02 0 01-.106-1.562c0-.504.035-1.024.106-1.561a5.29 5.29 0 01.403-1.475c.2-.447.47-.812.814-1.098.344-.285.79-.427 1.336-.427s.994.142 1.341.427c.348.286.62.651.814 1.098.195.446.327.937.398 1.475.07.537.105 1.057.105 1.561zm-1.504 0c0-.297-.012-.634-.037-1.01a6.257 6.257 0 00-.156-1.053 2.538 2.538 0 00-.347-.83c-.154-.228-.359-.342-.615-.342-.257 0-.462.114-.615.341-.153.227-.27.504-.348.83-.079.327-.13.678-.155 1.054a15.42 15.42 0 00-.038 1.01c0 .298.013.635.038 1.01.024.377.076.73.155 1.06.079.331.195.608.348.831a.711.711 0 00.615.335.711.711 0 00.615-.335c.153-.223.269-.5.347-.83.08-.331.13-.684.156-1.06.025-.376.037-.713.037-1.01zm7.56 0c0 .505-.036 1.025-.106 1.562a5.44 5.44 0 01-.398 1.475 2.879 2.879 0 01-.813 1.098c-.348.285-.795.427-1.342.427s-.992-.142-1.336-.427a2.966 2.966 0 01-.813-1.098 5.299 5.299 0 01-.404-1.475 12.02 12.02 0 01-.106-1.562c0-.504.036-1.024.106-1.561.07-.538.205-1.03.404-1.475a2.98 2.98 0 01.813-1.098c.344-.285.79-.427 1.336-.427.547 0 .994.142 1.342.427.347.286.619.651.813 1.098.195.446.327.937.398 1.475.07.537.105 1.057.105 1.561zm-1.504 0c0-.297-.012-.634-.037-1.01a6.257 6.257 0 00-.155-1.053 2.538 2.538 0 00-.348-.83c-.153-.228-.358-.342-.615-.342s-.462.114-.615.341c-.153.227-.27.504-.348.83-.079.327-.13.678-.155 1.054-.025.376-.037.713-.037 1.01 0 .298.012.635.037 1.01.025.377.076.73.155 1.06.079.331.195.608.348.831a.711.711 0 00.615.335.711.711 0 00.615-.335c.153-.223.27-.5.348-.83.078-.331.13-.684.155-1.06.025-.376.037-.713.037-1.01zm6.566 4.389l-2.348-4.265h-.037v4.265h-1.491v-8.777h1.49v3.806h.038l2.236-3.806h1.677l-2.584 4.041 2.746 4.736h-1.727zm8.125-7.078c-.323-.389-.73-.583-1.218-.583-.14 0-.277.023-.41.068a1.013 1.013 0 00-.36.217c-.108.1-.193.227-.255.384a1.513 1.513 0 00-.093.558c0 .372.112.66.335.862.224.202.518.394.883.576.215.108.434.231.658.372.224.14.426.31.609.508.182.199.33.434.447.707.116.272.174.595.174.967 0 .43-.069.81-.205 1.14a2.53 2.53 0 01-.547.837 2.242 2.242 0 01-.801.514 2.72 2.72 0 01-.97.174c-.488 0-.94-.095-1.353-.285a2.854 2.854 0 01-.994-.72l.807-1.09c.19.231.42.413.69.545.27.132.544.199.826.199.315 0 .576-.108.783-.323.207-.215.31-.516.31-.905 0-.38-.124-.681-.372-.904a4.24 4.24 0 00-.945-.62 5.638 5.638 0 01-.677-.385 2.586 2.586 0 01-.559-.502 2.281 2.281 0 01-.385-.681 2.73 2.73 0 01-.143-.936c0-.455.073-.845.218-1.172a2.296 2.296 0 011.373-1.29c.298-.102.6-.154.906-.154.448 0 .847.073 1.2.217a2.3 2.3 0 01.887.639l-.82 1.066zm1.969 7.078v-8.777h3.938v1.314h-2.51v2.33h2.323v1.216h-2.323v2.59h2.634v1.327h-4.062zm10.367-.942a2.747 2.747 0 01-.889.842c-.36.215-.813.323-1.36.323-.497 0-.946-.116-1.348-.347a3.086 3.086 0 01-1.018-.961 4.845 4.845 0 01-.646-1.457 7.007 7.007 0 01-.23-1.847c0-.669.076-1.287.23-1.853.153-.566.37-1.053.652-1.462.281-.41.623-.728 1.025-.955.401-.227.846-.34 1.335-.34.505 0 .948.092 1.33.278.38.186.69.453.931.8l-.857 1.04c-.34-.487-.779-.73-1.317-.73a1.26 1.26 0 00-.783.254 1.99 1.99 0 00-.559.688c-.149.289-.26.63-.335 1.022a6.742 6.742 0 00-.112 1.258c0 .438.037.854.112 1.246.075.393.186.734.335 1.023.15.29.338.518.566.688.227.17.494.254.8.254.29 0 .541-.074.753-.223a2 2 0 00.527-.546l.858 1.005zm6.292-2.17c0 .463-.05.897-.15 1.302-.098.405-.26.758-.484 1.06a2.34 2.34 0 01-.863.712c-.352.174-.78.26-1.286.26-.505 0-.932-.086-1.28-.26a2.308 2.308 0 01-.85-.712 2.912 2.912 0 01-.472-1.06 5.674 5.674 0 01-.143-1.302V36.03h1.49v5.529c0 .273.02.535.056.787.038.252.104.473.2.663.094.19.225.341.39.453.166.111.377.167.634.167s.468-.056.634-.167a1.16 1.16 0 00.391-.453c.095-.19.161-.41.199-.663a5.41 5.41 0 00.056-.787V36.03h1.478v5.665zm5.137 3.112l-1.367-3.744h-.832v3.744h-1.441v-8.777h2.51c.364 0 .7.048 1.006.143a2 2 0 01.789.452c.219.207.39.467.515.781.124.314.186.69.186 1.128 0 .34-.043.639-.13.899-.087.26-.197.481-.33.663a1.836 1.836 0 01-.44.44 1.542 1.542 0 01-.479.23l1.578 4.04h-1.565zm-.1-6.198a1.68 1.68 0 00-.111-.657 1.061 1.061 0 00-.292-.41 1.08 1.08 0 00-.404-.21 1.668 1.668 0 00-.447-.062h-.845v2.702h.845c.364 0 .664-.113.9-.34.237-.228.355-.569.355-1.023zm2.678 6.198v-8.777h1.49v8.777h-1.49zm5.323-7.512v7.512H285.3v-7.512h-1.652v-1.265h4.77v1.265h-1.652zm5.062 4.152v3.36h-1.466v-3.36l-2.198-5.417h1.615l1.316 3.917.038-.024 1.341-3.893h1.578l-2.224 5.417zm9.939.905c0 .463-.077.85-.23 1.16a2.157 2.157 0 01-1.379 1.171 3.182 3.182 0 01-.863.124h-2.61v-8.777h2.336c.257 0 .53.031.82.093.29.062.555.174.795.335.24.161.44.384.597.67.157.285.236.654.236 1.109 0 .545-.116.975-.348 1.289-.232.314-.501.533-.808.657v.025c.166.041.334.111.503.21.17.1.326.238.466.416.141.177.257.392.348.644.091.252.137.544.137.874zm-1.64-3.88c0-.223-.035-.41-.106-.564a1.061 1.061 0 00-.273-.372 1.014 1.014 0 00-.391-.204 1.713 1.713 0 00-.46-.062h-.82v2.442h.845c.15 0 .296-.023.441-.068a1.045 1.045 0 00.658-.601c.07-.157.106-.348.106-.57zm.211 3.756c0-.256-.041-.473-.124-.65a1.243 1.243 0 00-.758-.676 1.563 1.563 0 00-.472-.074h-.907v2.739h.944c.183 0 .352-.027.51-.08a1.15 1.15 0 00.702-.664c.07-.165.105-.363.105-.595zm8.59-1.822a7.62 7.62 0 01-.217 1.89 4.64 4.64 0 01-.627 1.457 2.97 2.97 0 01-1 .942 2.634 2.634 0 01-1.323.335 2.63 2.63 0 01-1.33-.335 2.99 2.99 0 01-.993-.942 4.64 4.64 0 01-.628-1.457 7.624 7.624 0 01-.217-1.89c0-.694.07-1.322.211-1.884a4.554 4.554 0 01.621-1.45 2.91 2.91 0 011-.936 2.699 2.699 0 011.336-.329c.489 0 .93.11 1.323.329a2.91 2.91 0 011 .936c.273.405.482.888.627 1.45a7.55 7.55 0 01.218 1.884zm-1.54 0c0-.446-.035-.866-.105-1.258a3.978 3.978 0 00-.31-1.017 1.927 1.927 0 00-.51-.675 1.08 1.08 0 00-.702-.248c-.273 0-.512.083-.714.248-.203.165-.373.39-.51.675a3.825 3.825 0 00-.304 1.017c-.066.392-.1.812-.1 1.258 0 .446.034.866.1 1.258.066.393.168.734.304 1.023.137.29.307.516.51.682.202.165.44.248.714.248.273 0 .511-.083.714-.248a1.93 1.93 0 00.51-.682c.136-.29.238-.63.304-1.023.066-.392.1-.812.1-1.258zm8.168 1.29c0 .462-.05.896-.149 1.3-.099.406-.26.759-.484 1.06-.224.302-.512.54-.864.713-.351.174-.78.26-1.285.26-.505 0-.932-.086-1.28-.26a2.308 2.308 0 01-.85-.712 2.912 2.912 0 01-.473-1.06 5.674 5.674 0 01-.143-1.302V36.03h1.491v5.529c0 .273.019.535.056.787.037.252.103.473.199.663.095.19.225.341.391.453.166.111.377.167.634.167.256 0 .467-.056.633-.167a1.16 1.16 0 00.391-.453c.096-.19.162-.41.2-.663.037-.252.055-.514.055-.787V36.03h1.478v5.665zm5.349 3.11l-2.497-6.197h-.038l.025 6.198h-1.342v-8.777h1.702l2.473 6.235h.037l-.013-6.235h1.292v8.777h-1.64zm5.472-7.511v7.512h-1.466v-7.512h-1.652v-1.265h4.77v1.265h-1.652zm5.062 4.152v3.36h-1.466v-3.36l-2.198-5.417h1.615l1.316 3.917.038-.024 1.341-3.893h1.578l-2.224 5.417z"/></g></g></svg>