<svg width="120" height="82" xmlns="http://www.w3.org/2000/svg" xmlns:xlink="http://www.w3.org/1999/xlink"><defs><path id="a" d="M.359 13.972l20.014-13 19.986 13v37h-40z"/></defs><g fill="none" fill-rule="evenodd"><path d="M59.798 2.957C69.804 25.28 73.81 39.961 71.82 47H45.9c-2.206-7.863 1.822-22.552 12.083-44.064a1 1 0 011.815.021z" fill="#75C464"/><path d="M59.386 3.723C64.764 25.616 66.483 40.042 64.544 47H45.891c-2.152-7.79 1.72-22.277 11.618-43.462a1 1 0 011.877.185z" fill="#439D6D"/><path d="M19.798 33.957C29.804 56.28 33.81 70.961 31.82 78H5.9c-2.206-7.863 1.822-22.552 12.083-44.064a1 1 0 011.815.021z" fill="#75C464"/><path d="M19.386 34.723C24.764 56.616 26.483 71.042 24.544 78H5.891C3.74 70.21 7.611 55.723 17.51 34.538a1 1 0 011.877.185z" fill="#439D6D"/><path d="M95 64a19.944 19.944 0 0114.955 6.749L119 81H95V64z" fill="#C1AC91"/><path fill="#1A8CFF" d="M87.902 32h10v15h-10z"/><path fill="#76BAFF" d="M93.902 32h4v15h-4z"/><path fill="#DFE3E8" d="M23 49.972h36v31H23z"/><path fill="#06C" d="M27 60.972h29v20H27z"/><path d="M56 78v1H27v-1h29zm0-3v1H27v-1h29zm0-3v1H27v-1h29zm0-3v1H27v-1h29zm0-3v1H27v-1h29zm0-3v1H27v-1h29z" fill="#76BAFF"/><path fill="#1A8CFF" d="M23 52v2.952L18 52z"/><path fill="#06C" d="M38 42.972h22v9H18z"/><g transform="translate(57.641 30)"><mask id="b" fill="#fff"><use xlink:href="#a"/></mask><use fill="#FFF" xlink:href="#a"/><path d="M20.184 1l.003.005.003-.002L47 20.055 41.496 21 20.185 5.854.398 19.917-7 20.318 20.184 1z" fill="#DFE3E8" opacity=".79" mask="url(#b)"/></g><path fill="#E5E8EC" d="M73 60.972h10v20H73zM87 65h6v6h-6zM63 65h6v6h-6z"/><path d="M78.035 28l.002.005.002-.003 25.394 17.78-1.72 2.458-23.678-16.579-23.673 16.577-1.72-2.457L78.034 28z" fill="#1A8CFF"/><circle fill="#F8D772" cx="108" cy="11" r="11"/><path d="M38.801 81.029C37.815 71.462 29.73 64 19.902 64 10.064 64 1.972 71.478 1 81.06c5.56 0 32.378 0 37.801-.031z" fill="#E1AB78"/><path d="M66.902 81a9 9 0 10-18 0h18z" fill="#C1AC91"/><rect fill="#C4CDD5" y="81" width="120" height="1" rx=".5"/></g></svg>