<svg width="305" height="351" fill="none" xmlns="http://www.w3.org/2000/svg"><g clip-path="url(#a)"><path d="m162.78 249.915 4.16 11.42c.11.3.16.619.146.938a2.417 2.417 0 0 1-.784 1.689 2.436 2.436 0 0 1-.812.493l-15.53 5.65a2.438 2.438 0 0 1-1.861-.077 2.439 2.439 0 0 1-1.259-1.373l-4.2-11.42a10.699 10.699 0 0 1 20.1-7.32h.04Z" stroke="#FFAA05" stroke-width="4.86"/><path d="m168.973 256.966-26.499 9.645a3.89 3.89 0 0 0-2.325 4.986l6.984 19.188a3.89 3.89 0 0 0 4.986 2.325l26.499-9.645a3.89 3.89 0 0 0 2.325-4.986l-6.984-19.188a3.89 3.89 0 0 0-4.986-2.325Z" fill="#fff" stroke="#02346E" stroke-width="2"/><path d="M160.55 283.795a8.75 8.75 0 1 0 0-17.5 8.75 8.75 0 0 0 0 17.5Z" fill="#FFAA05"/><path fill-rule="evenodd" clip-rule="evenodd" d="M162.21 275.355a.552.552 0 0 1 .08-.48 2.925 2.925 0 0 0-1.596-4.458 2.922 2.922 0 0 0-3.102 4.616c.384.486.912.836 1.508 1.002a.523.523 0 0 1 .37.32l1.21 3.3a.462.462 0 0 0 .247.279.474.474 0 0 0 .373.011l1.83-.66a.487.487 0 0 0 .29-.62l-1.21-3.31Z" fill="#034EA6"/><path d="M194.42 238.855H67.1a3.31 3.31 0 0 0-3.31 3.31v1.73a3.31 3.31 0 0 0 3.31 3.31h127.32a3.31 3.31 0 0 0 3.31-3.31v-1.73a3.31 3.31 0 0 0-3.31-3.31Z" fill="#034EA6"/><path d="m160.14 16.646-6.19 6.14-8.41-2.29-2.21-8.43 6.19-6.14 8.4 2.29 2.22 8.43Z" fill="#02346E"/><path d="m123.64 315.296-4.15 11.42a2.441 2.441 0 0 1-3.12 1.45l-15.53-5.65a2.442 2.442 0 0 1-1.45-3.12l4.17-11.39a10.703 10.703 0 0 1 13.608-6.11 10.704 10.704 0 0 1 6.492 13.43l-.02-.03Z" stroke="#FFAA05" stroke-width="4.86"/><path d="M106.46 347.316c8.859 0 16.04-7.182 16.04-16.04 0-8.859-7.181-16.04-16.04-16.04-8.859 0-16.04 7.181-16.04 16.04 0 8.858 7.181 16.04 16.04 16.04Z" fill="#fff" stroke="#02346E" stroke-width="2"/><path d="M106.46 340.025a8.75 8.75 0 1 0 0-17.5 8.75 8.75 0 0 0 0 17.5Z" fill="#FFAA05"/><path fill-rule="evenodd" clip-rule="evenodd" d="M107.54 332.586a.51.51 0 0 1 .37-.32 3.005 3.005 0 0 0 2-1.82 2.923 2.923 0 0 0-3.116-3.893 2.922 2.922 0 0 0-2.034 4.553.545.545 0 0 1 .08.49l-1.2 3.3a.459.459 0 0 0 .011.372.475.475 0 0 0 .279.248l1.82.66a.486.486 0 0 0 .377-.011.494.494 0 0 0 .253-.279l1.16-3.3Z" fill="#034EA6"/><path d="M92.38 253.335v43.32m75.91 13.17v34" stroke="#F1FAFF" stroke-width="2" stroke-linecap="round"/><path d="m82.06 216.006-12-22.53h119.101l-12 22.53a3.76 3.76 0 0 1-3.37 1.79h-88.36a3.78 3.78 0 0 1-3.37-1.79Z" fill="#F1FAFF" stroke="#034EA6" stroke-width="2"/><path fill-rule="evenodd" clip-rule="evenodd" d="M187.751 196.125H71.811l10.08 19.69c.68 1.29 6 1.33 6 1.33l-7-16.11h104.29l2.57-4.91Z" fill="#02346E"/><path d="M74.52 235.286h-1.47l.61-1.09 8.21-18.78a5.864 5.864 0 0 1 5.18-2.72h87.21a5.862 5.862 0 0 1 5.17 2.72l8.21 18.78.61 1.09H74.52Z" fill="#FFAA05" stroke="#02346E" stroke-width="2"/><path d="M190.52 242.006a.387.387 0 0 0 .308-.158.385.385 0 0 0 .052-.342l-1.24-3.91a3.729 3.729 0 0 0-3.66-2.31H74.86a3.752 3.752 0 0 0-3.67 2.31l-1.24 3.88a.378.378 0 0 0 .187.458.385.385 0 0 0 .173.042l120.21.03Z" fill="#fff" stroke="#02346E" stroke-width="2"/><path fill-rule="evenodd" clip-rule="evenodd" d="M82.1 235.676v6.42H84v-6.42h-1.9Zm18.95 0v6.42h1.89v-6.42h-1.89Zm18.94 6.42v-6.42h1.9v6.42h-1.9Zm18.95-6.42v6.42h1.89v-6.42h-1.89Zm19 6.42v-6.42h1.89v6.42h-1.89Zm18.94-6.42v6.42h1.9v-6.42h-1.9Zm-99.24-12.1a.84.84 0 0 1 .92-.75h30.281a.764.764 0 0 1 .867.415.762.762 0 0 1 0 .669.758.758 0 0 1-.524.417.779.779 0 0 1-.343-.001h-30.2a.853.853 0 0 1-1-.75Zm-1.2 4.49a.766.766 0 0 0-.653.147.772.772 0 0 0 0 1.206.765.765 0 0 0 .653.147h30.2a.768.768 0 0 0 .868-.415.765.765 0 0 0 0-.67.775.775 0 0 0-.524-.416.768.768 0 0 0-.344.001h-30.2Z" fill="#02346E"/><path d="m210.051 161.005-10.77-7.55a7.455 7.455 0 0 0-4.23-1.33h-130a7.454 7.454 0 0 0-4.23 1.33l-10.78 7.55a7.347 7.347 0 0 0-3.15 6v14.34a7.353 7.353 0 0 0 3.22 6.09l11.13 7.57a7.322 7.322 0 0 0 4.16 1.29h129.65a7.44 7.44 0 0 0 4.23-1.33l10.77-7.55a7.378 7.378 0 0 0 2.3-2.617 7.38 7.38 0 0 0 .84-3.383v-14.41a7.38 7.38 0 0 0-3.14-6Z" fill="#fff" stroke="#02346E" stroke-width="2"/><path d="M84.1 88.525v36.48" stroke="#02346E" stroke-width="2" stroke-linecap="round"/><path d="M124.12 99.456c6.406 0 11.6-5.194 11.6-11.6 0-6.407-5.194-11.6-11.6-11.6-6.407 0-11.6 5.193-11.6 11.6 0 6.406 5.193 11.6 11.6 11.6Z" fill="#FFAA05" stroke="#02346E" stroke-width="2"/><path d="M135.02 83.895c-.83-2.29-3.46-3.92-5.3-5.23.61.84 1.18.51 2.35 2.35a10.813 10.813 0 0 1-1.1 12.45c-5.51 6.06-13.33 3.9-16.12-.45 2.57 6 8.25 7.561 13.24 5.74a11.59 11.59 0 0 0 6.93-14.86Z" fill="#02346E"/><path d="M189.16.936v24.59" stroke="#02346E" stroke-width="2" stroke-linecap="round"/><path d="M63.03 55.426v38.3" stroke="#FFAA05" stroke-width="2" stroke-linecap="round"/><path d="m164.859 37.645-21.503 8.134a2.99 2.99 0 0 0-1.739 3.854l6.047 15.985a2.99 2.99 0 0 0 3.854 1.738l21.503-8.133a2.99 2.99 0 0 0 1.739-3.855l-6.046-15.985a2.99 2.99 0 0 0-3.855-1.738Z" fill="#fff" stroke="#02346E" stroke-width="2"/><path d="M173.4 51.935c.58 1.54.47 3.91-1.07 4.49l-21.51 8.14c-1.34.51-3.48-.66-4.23-1.81l1.05 2.84a2.997 2.997 0 0 0 3.86 1.74l21.51-8.14a3 3 0 0 0 1.73-3.85l-1.34-3.41Z" fill="#02346E"/><path d="M146.3 62.185c.076.2.174.391.29.57l-.29-.57Z" fill="#034EA6"/><path d="M193.58 74.606v21.78" stroke="#FFAA05" stroke-width="4.86" stroke-linecap="round"/><path d="M118.641 19.416v21.78" stroke="#F1FAFF" stroke-width="2" stroke-linecap="round"/><path d="M163.27 86.396a2.4 2.4 0 1 0 0-4.8 2.4 2.4 0 0 0 0 4.8Z" fill="#02346E"/><path d="M93.04 75.046a2.4 2.4 0 1 0 0-4.8 2.4 2.4 0 0 0 0 4.8Z" fill="#fff"/><path d="m89.99 47.58-4.726-1.436-1.437 4.726 4.726 1.437 1.437-4.727Zm78.857 56.023-4.727-1.437-1.437 4.726 4.727 1.437 1.437-4.726Z" stroke="#FFAA05" stroke-width="2"/><path d="m68.45 10.576 16.54 13.95 3.81-21.3-20.35 7.35Z" fill="#fff" stroke="#02346E" stroke-width="2"/><path d="m62.14 150.935-11.62-18.2h159l-15.62 18.2a4.229 4.229 0 0 1-3.11 1.13H65.26a4.248 4.248 0 0 1-3.12-1.13Z" fill="#F1FAFF" stroke="#02346E" stroke-width="2"/><path fill-rule="evenodd" clip-rule="evenodd" d="m48.26 131.065 4.87 5.91H202.1l-10.79 14.97 6.41.17 14.1-21.05H48.26Z" fill="#02346E"/><path d="M214.43 117.056H45.65a3.65 3.65 0 0 0-3.65 3.65v8.21a3.65 3.65 0 0 0 3.65 3.65h168.78a3.65 3.65 0 0 0 3.65-3.65v-8.21a3.65 3.65 0 0 0-3.65-3.65Z" fill="#fff" stroke="#02346E" stroke-width="2"/><path fill-rule="evenodd" clip-rule="evenodd" d="M56.14 132.566v-14.56h1.83v14.59l-1.83-.03Zm18.25 0v-14.56h1.82v14.59l-1.82-.03Zm18.25-14.56v14.59h1.82v-14.59h-1.82Zm18.241 14.59v-14.59h1.83v14.59h-1.83Zm18.25-14.59v14.59h1.82v-14.59h-1.82Zm18.25 14.59v-14.59h1.82v14.59h-1.82Zm18.26-14.59v14.59h1.83v-14.59h-1.83Zm18.25 14.59v-14.59h1.82v14.59h-1.82Zm18.23-14.59v14.59h1.82v-14.59h-1.82Z" fill="#02346E"/><path d="M214.359 171.735h6.14l-2.45 4.92h-3.69v-4.92Z" fill="#034EA6"/><path d="M213.95 170.916h27v6.56h-27v-6.56Z" fill="#F1FAFF" stroke="#02346E" stroke-width="2"/><path d="M247.95 139.375h4.09v9.42l-4.09-4.09v-5.33Z" fill="#02346E"/><path d="m246.74 165.186.78-27h5l.77 27h-6.55Z" stroke="#02346E" stroke-width="2"/><path d="M255.72 165.186h-11.46a3.28 3.28 0 0 0-3.28 3.28v11.46a3.28 3.28 0 0 0 3.28 3.28h11.46a3.28 3.28 0 0 0 3.28-3.28v-11.46a3.28 3.28 0 0 0-3.28-3.28Z" fill="#FFAA05" stroke="#02346E" stroke-width="2"/><path d="M250.201 178.286a3.89 3.89 0 1 0-.001-7.781 3.89 3.89 0 0 0 .001 7.781Z" fill="#034EA6"/><path d="M254.09 135.275h-8.19a.82.82 0 0 0-.82.82v2.46c0 .453.367.82.82.82h8.19a.82.82 0 0 0 .82-.82v-2.46a.82.82 0 0 0-.82-.82Z" fill="#FFAA05"/><path d="M249.99 136.095c6.334 0 11.47-5.135 11.47-11.47 0-6.334-5.136-11.47-11.47-11.47-6.335 0-11.47 5.136-11.47 11.47 0 6.335 5.135 11.47 11.47 11.47Z" fill="#fff" stroke="#02346E" stroke-width="2"/><path d="M238.939 124.005c.41-4.78 4.13-13.35 15.77-9.42-9.01 5.42-14.27 8.54-15.77 9.42Z" fill="#FFAA05"/><path d="M249.99 136.095c6.334 0 11.47-5.135 11.47-11.47 0-6.334-5.136-11.47-11.47-11.47-6.335 0-11.47 5.136-11.47 11.47 0 6.335 5.135 11.47 11.47 11.47Z" stroke="#02346E" stroke-width="2"/><path d="M249.989 127.086a2.46 2.46 0 1 0 0-4.92 2.46 2.46 0 0 0 0 4.92Z" fill="#034EA6"/><path d="M250 113.365v-6.76" stroke="#02346E" stroke-width="2"/><path d="M249.989 107.836a2.46 2.46 0 1 0 0-4.92 2.46 2.46 0 0 0 0 4.92Z" fill="#FFAA05"/><path d="m255.531 118.286-3.69 6.55-2.2-2.05 5.89-4.5Zm-18.64 53.449h3.28v4.92h-3.28v-4.92Z" fill="#034EA6"/><path fill-rule="evenodd" clip-rule="evenodd" d="M65.05 170.095a1.431 1.431 0 0 0 1.011-2.441 1.428 1.428 0 0 0-2.2.217 1.43 1.43 0 0 0 1.189 2.224Zm-4.09 5.74a1.441 1.441 0 0 0 1.412-1.721 1.443 1.443 0 0 0-1.131-1.131 1.436 1.436 0 0 0-1.478.612 1.443 1.443 0 0 0-.243.8 1.43 1.43 0 0 0 1.44 1.44Zm9.62-1.44a1.431 1.431 0 1 1-2.863 0 1.431 1.431 0 0 1 2.863 0Zm-13.31 7.17a1.431 1.431 0 0 0 1.011-2.441 1.428 1.428 0 0 0-2.2.217 1.43 1.43 0 0 0-.241.794 1.442 1.442 0 0 0 1.43 1.43Zm9.22-1.43a1.439 1.439 0 1 1-1.44-1.43 1.442 1.442 0 0 1 1.017.416 1.431 1.431 0 0 1 .423 1.014Zm6.35 1.43a1.425 1.425 0 0 0 1.314-.889 1.432 1.432 0 0 0-1.049-1.944 1.433 1.433 0 0 0-1.596 1.953 1.433 1.433 0 0 0 1.33.88Z" fill="#FFAA05"/><path d="M86.15 166.006a.824.824 0 0 1 .758.506c.04.1.062.206.062.314v14.74a.822.822 0 0 1-.82.82.816.816 0 0 1-.82-.82v-14.74a.822.822 0 0 1 .82-.82Z" fill="#034EA6"/><path d="M87.79 172.146h-3.28a.41.41 0 0 0-.41.409v1.64c0 .227.183.41.41.41h3.28a.41.41 0 0 0 .41-.41v-1.64a.41.41 0 0 0-.41-.409Z" fill="#FFAA05"/><path d="M95.16 166.006a.819.819 0 0 1 .82.82v14.74a.822.822 0 0 1-1.4.58.824.824 0 0 1-.24-.58v-14.74a.822.822 0 0 1 .82-.82Z" fill="#034EA6"/><path d="M96.8 175.016h-3.28a.41.41 0 0 0-.41.41v1.64c0 .226.183.41.41.41h3.28a.41.41 0 0 0 .41-.41v-1.64a.41.41 0 0 0-.41-.41Z" fill="#FFAA05"/><path d="M104.17 166.006a.81.81 0 0 1 .82.82v14.74a.81.81 0 0 1-.82.82.819.819 0 0 1-.82-.82v-14.74a.819.819 0 0 1 .82-.82Z" fill="#034EA6"/><path d="M105.81 168.865h-3.28a.41.41 0 0 0-.41.41v1.64c0 .227.184.41.41.41h3.28a.41.41 0 0 0 .41-.41v-1.64a.41.41 0 0 0-.41-.41Z" fill="#FFAA05"/><path fill-rule="evenodd" clip-rule="evenodd" d="M167.251 168.466a.819.819 0 0 1 .82-.82h27a.817.817 0 0 1 .91.815.818.818 0 0 1-.91.815h-27a.82.82 0 0 1-.82-.81Zm0 5.73a.819.819 0 0 1 .82-.82h27a.82.82 0 1 1 0 1.64h-27a.82.82 0 0 1-.82-.82Zm.82 4.92a.82.82 0 1 0 0 1.63h27a.834.834 0 0 0 .637-.204.825.825 0 0 0 .202-.946.821.821 0 0 0-.839-.48h-27Zm34.819-10.65a.823.823 0 0 1 .82-.82h9.83a.82.82 0 1 1 0 1.63h-9.83a.82.82 0 0 1-.82-.81Zm0 5.73a.823.823 0 0 1 .82-.82h9.83a.819.819 0 1 1 0 1.64h-9.83a.821.821 0 0 1-.82-.82Zm.82 4.92a.817.817 0 0 0-.91.815.818.818 0 0 0 .91.815h9.83a.837.837 0 0 0 .341-.034.84.84 0 0 0 .297-.17.836.836 0 0 0 .273-.611.82.82 0 0 0-.911-.815h-9.83Z" fill="#02346E"/><path d="M49.9 184.006a7.211 7.211 0 0 0 2.69 3.48l10.84 7.4a7.122 7.122 0 0 0 4.05 1.25h126.16a7.18 7.18 0 0 0 4.11-1.29l10.49-7.34a7.148 7.148 0 0 0 2.64-3.5H49.9Z" fill="#F1FAFF"/></g><defs><clipPath id="a"><path fill="#fff" transform="translate(0 .13)" d="M0 0h304.76v350H0z"/></clipPath></defs></svg>