<svg xmlns="http://www.w3.org/2000/svg" width="29" height="32"><g fill="none" fill-rule="evenodd" transform="translate(1 1)"><circle cx="10" cy="5" r="1" fill="#0572ec" fill-rule="nonzero"/><path stroke="#0572ec" stroke-linecap="round" stroke-width="2" d="M12 30H3a3 3 0 01-3-3V3a3 3 0 013-3h14a3 3 0 013 3v10"/><path fill="#0572ec" fill-rule="nonzero" d="M12 18a1 1 0 010 2H5a1 1 0 010-2zm3-6a1 1 0 010 2H5a1 1 0 010-2zm12 10h-1v-2c0-2.206-1.794-4-4-4s-4 1.794-4 4v2h-1a1 1 0 00-1 1v7a1 1 0 001 1h10a1 1 0 001-1v-7a1 1 0 00-1-1zm-7-2c0-1.103.897-2 2-2s2 .897 2 2v2h-4v-2z"/></g></svg>