<svg xmlns="http://www.w3.org/2000/svg" width="190" height="100"><g fill="none" fill-rule="evenodd"><rect width="190" height="50" fill="#439D6D" rx="6"/><path fill="#FFF" fill-rule="nonzero" d="M57.613 30.22a.669.669 0 01-.646-.646l.068-2.958-2.448 1.7c-.272.204-.714.102-.884-.17l-.578-.918a.656.656 0 01.17-.918l2.822-1.7-2.822-1.7c-.306-.204-.374-.612-.204-.918.272-.374.408-.612.646-.918.17-.238.578-.34.85-.136l2.448 1.7-.068-2.992c0-.34.306-.646.646-.646h1.088c.34 0 .646.306.646.646l-.068 2.992 2.448-1.734c.272-.17.714-.102.884.17l.578.918c.204.306.17.714-.17.918l-2.822 1.7 2.822 1.734c.34.204.374.612.204.884l-.646.918c-.17.306-.578.374-.85.204l-2.448-1.7.068 2.924c0 .34-.306.646-.646.646h-1.088zm14.695 0a.669.669 0 01-.646-.646l.068-2.958-2.448 1.7c-.272.204-.714.102-.884-.17l-.578-.918a.656.656 0 01.17-.918l2.822-1.7-2.822-1.7c-.306-.204-.374-.612-.204-.918.272-.374.408-.612.646-.918.17-.238.578-.34.85-.136l2.448 1.7-.068-2.992c0-.34.306-.646.646-.646h1.088c.34 0 .646.306.646.646l-.068 2.992 2.448-1.734c.272-.17.714-.102.884.17l.578.918c.204.306.17.714-.17.918l-2.822 1.7 2.822 1.734c.34.204.374.612.204.884l-.646.918c-.17.306-.578.374-.85.204l-2.448-1.7.068 2.924c0 .34-.306.646-.646.646h-1.088zm14.695 0a.669.669 0 01-.646-.646l.068-2.958-2.448 1.7c-.272.204-.714.102-.884-.17l-.578-.918a.656.656 0 01.17-.918l2.822-1.7-2.822-1.7c-.306-.204-.374-.612-.204-.918.272-.374.408-.612.646-.918.17-.238.578-.34.85-.136l2.448 1.7-.068-2.992c0-.34.306-.646.646-.646h1.088c.34 0 .646.306.646.646l-.068 2.992 2.448-1.734c.272-.17.714-.102.884.17l.578.918c.204.306.17.714-.17.918l-2.822 1.7 2.822 1.734c.34.204.374.612.204.884l-.646.918c-.17.306-.578.374-.85.204l-2.448-1.7.068 2.924c0 .34-.306.646-.646.646h-1.088zm14.694 0a.669.669 0 01-.646-.646l.068-2.958-2.448 1.7c-.272.204-.714.102-.884-.17l-.578-.918a.656.656 0 01.17-.918l2.822-1.7-2.822-1.7c-.306-.204-.374-.612-.204-.918.272-.374.408-.612.646-.918.17-.238.578-.34.85-.136l2.448 1.7-.068-2.992c0-.34.306-.646.646-.646h1.088c.34 0 .646.306.646.646l-.068 2.992 2.448-1.734c.272-.17.714-.102.884.17l.578.918c.204.306.17.714-.17.918l-2.822 1.7 2.822 1.734c.34.204.374.612.204.884l-.646.918c-.17.306-.578.374-.85.204l-2.448-1.7.068 2.924c0 .34-.306.646-.646.646h-1.088zm14.695 0a.669.669 0 01-.646-.646l.068-2.958-2.448 1.7c-.272.204-.714.102-.884-.17l-.578-.918a.656.656 0 01.17-.918l2.822-1.7-2.822-1.7c-.306-.204-.374-.612-.204-.918.272-.374.408-.612.646-.918.17-.238.578-.34.85-.136l2.448 1.7-.068-2.992c0-.34.306-.646.646-.646h1.088c.34 0 .646.306.646.646l-.068 2.992 2.448-1.734c.272-.17.714-.102.884.17l.578.918c.204.306.17.714-.17.918l-2.822 1.7 2.822 1.734c.34.204.374.612.204.884l-.646.918c-.17.306-.578.374-.85.204l-2.448-1.7.068 2.924c0 .34-.306.646-.646.646h-1.088zm14.695 0a.669.669 0 01-.646-.646l.068-2.958-2.448 1.7c-.272.204-.714.102-.884-.17l-.578-.918a.656.656 0 01.17-.918l2.822-1.7-2.822-1.7c-.306-.204-.374-.612-.204-.918.272-.374.408-.612.646-.918.17-.238.578-.34.85-.136l2.448 1.7-.068-2.992c0-.34.306-.646.646-.646h1.088c.34 0 .646.306.646.646l-.068 2.992 2.448-1.734c.272-.17.714-.102.884.17l.578.918c.204.306.17.714-.17.918l-2.822 1.7 2.822 1.734c.34.204.374.612.204.884l-.646.918c-.17.306-.578.374-.85.204l-2.448-1.7.068 2.924c0 .34-.306.646-.646.646h-1.088zm14.695 0a.669.669 0 01-.646-.646l.068-2.958-2.448 1.7c-.272.204-.714.102-.884-.17l-.578-.918a.656.656 0 01.17-.918l2.822-1.7-2.822-1.7c-.306-.204-.374-.612-.204-.918.272-.374.408-.612.646-.918.17-.238.578-.34.85-.136l2.448 1.7-.068-2.992c0-.34.306-.646.646-.646h1.088c.34 0 .646.306.646.646l-.068 2.992 2.448-1.734c.272-.17.714-.102.884.17l.578.918c.204.306.17.714-.17.918l-2.822 1.7 2.822 1.734c.34.204.374.612.204.884l-.646.918c-.17.306-.578.374-.85.204l-2.448-1.7.068 2.924c0 .34-.306.646-.646.646h-1.088zm14.695 0a.669.669 0 01-.646-.646l.068-2.958-2.448 1.7c-.272.204-.714.102-.884-.17l-.578-.918a.656.656 0 01.17-.918l2.822-1.7-2.822-1.7c-.306-.204-.374-.612-.204-.918.272-.374.408-.612.646-.918.17-.238.578-.34.85-.136l2.448 1.7-.068-2.992c0-.34.306-.646.646-.646h1.088c.34 0 .646.306.646.646l-.068 2.992 2.448-1.734c.272-.17.714-.102.884.17l.578.918c.204.306.17.714-.17.918l-2.822 1.7 2.822 1.734c.34.204.374.612.204.884l-.646.918c-.17.306-.578.374-.85.204l-2.448-1.7.068 2.924c0 .34-.306.646-.646.646h-1.088z"/><g stroke="#8EC4A7" stroke-width="2" transform="translate(14 14)"><path stroke-linecap="square" d="M0 10h18v12H0z"/><circle cx="9" cy="16" r="2" stroke-linecap="square"/><path d="M14 10V5a4.951 4.951 0 00-4.9-5H9a4.951 4.951 0 00-5 4.9V10"/></g><rect width="140" height="40" x="25" y="60" fill="#DFE3E8" rx="6"/><g fill="#919EAB" fill-rule="nonzero" transform="translate(39 74)"><path d="M11.707.293a1 1 0 00-1.414 0L5.886 4.7A4.5 4.5 0 017.3 6.114l1.407-1.407L10 6l2-2-1.293-1.293 1-1a1 1 0 000-1.414z"/><circle cx="3.5" cy="8.5" r="3.5"/></g></g></svg>