<svg xmlns="http://www.w3.org/2000/svg" width="32" height="31"><g fill="none" fill-rule="evenodd"><path stroke="#0572ec" stroke-linecap="round" stroke-width="2" d="M17 25H5a4 4 0 01-4-4h16M4 17V3a2 2 0 012-2h20a2 2 0 012 2v10"/><path fill="#0572ec" fill-rule="nonzero" d="M17.715 11.83l1.485.065v1.187c0 1.046-.75 2.002-1.792 2.107A2.002 2.002 0 0115.2 13.2V8.653a2.394 2.394 0 001.553-2.733 2.408 2.408 0 00-1.9-1.878A2.404 2.404 0 0012 6.4c0 1.042.67 1.921 1.6 2.253v4.43c0 1.045.136 1.796.8 2.64.664.844 1.905 1.2 3.209 1.054 1.85-.208 3.191-1.879 3.191-3.74V8.905l-3.29 2.193a.4.4 0 00.205.733zM14.4 5.6a.8.8 0 11-.002 1.602A.8.8 0 0114.4 5.6zM31 22h-1v-2c0-2.206-1.794-4-4-4s-4 1.794-4 4v2h-1a1 1 0 00-1 1v7a1 1 0 001 1h10a1 1 0 001-1v-7a1 1 0 00-1-1zm-7-2c0-1.103.897-2 2-2s2 .897 2 2v2h-4v-2z"/></g></svg>