<svg xmlns="http://www.w3.org/2000/svg" width="190" height="100"><g fill="none" fill-rule="evenodd"><rect width="190" height="50" y="50" fill="#1A8CFF" rx="6"/><path fill="#FFF" fill-rule="nonzero" d="M57.39 69.853v-8.606c0-.13.117-.247.247-.247h1.56c.13 0 .247.117.247.247v8.606c0 .13-.117.247-.247.247h-1.56a.256.256 0 01-.247-.247zm4.11 0v-8.606c0-.13.118-.247.248-.247h1.56c.13 0 .247.117.247.247v8.606c0 .13-.117.247-.247.247h-1.56a.256.256 0 01-.247-.247zm4.111 0v-8.606c0-.13.117-.247.247-.247h1.56c.13 0 .247.117.247.247v8.606c0 .13-.117.247-.247.247h-1.56a.256.256 0 01-.247-.247zm4.11 0v-8.606c0-.13.118-.247.248-.247h1.56c.13 0 .247.117.247.247v8.606c0 .13-.117.247-.247.247h-1.56a.256.256 0 01-.247-.247zm7.091-2.067c-.143 0-.247-.104-.247-.234v-1.183c0-.143.104-.247.247-.247h2.977c.143 0 .247.104.247.247v1.183c0 .13-.104.234-.247.234h-2.977zm8.013 2.067v-8.606c0-.13.117-.247.247-.247h1.56c.13 0 .247.117.247.247v8.606c0 .13-.117.247-.247.247h-1.56a.256.256 0 01-.247-.247zm4.11 0v-8.606c0-.13.118-.247.248-.247h1.56c.13 0 .247.117.247.247v8.606c0 .13-.117.247-.247.247h-1.56a.256.256 0 01-.247-.247zm4.111 0v-8.606c0-.13.117-.247.247-.247h1.56c.13 0 .247.117.247.247v8.606c0 .13-.117.247-.247.247h-1.56a.256.256 0 01-.247-.247zm4.111 0v-8.606c0-.13.117-.247.247-.247h1.56c.13 0 .247.117.247.247v8.606c0 .13-.117.247-.247.247h-1.56a.256.256 0 01-.247-.247zm7.09-2.067c-.143 0-.247-.104-.247-.234v-1.183c0-.143.104-.247.247-.247h2.977c.143 0 .247.104.247.247v1.183c0 .13-.104.234-.247.234h-2.977zm8.013 2.067v-8.606c0-.13.117-.247.247-.247h1.56c.13 0 .247.117.247.247v8.606c0 .13-.117.247-.247.247h-1.56a.256.256 0 01-.247-.247zm4.111 0v-8.606c0-.13.117-.247.247-.247h1.56c.13 0 .247.117.247.247v8.606c0 .13-.117.247-.247.247h-1.56a.256.256 0 01-.247-.247zm4.11 0v-8.606c0-.13.118-.247.248-.247h1.56c.13 0 .247.117.247.247v8.606c0 .13-.117.247-.247.247h-1.56a.256.256 0 01-.247-.247zm4.111 0v-8.606c0-.13.117-.247.247-.247h1.56c.13 0 .247.117.247.247v8.606c0 .13-.117.247-.247.247h-1.56a.256.256 0 01-.247-.247zm7.09-2.067c-.143 0-.247-.104-.247-.234v-1.183c0-.143.104-.247.247-.247h2.977c.143 0 .247.104.247.247v1.183c0 .13-.104.234-.247.234h-2.977zm8.014 2.067v-8.606c0-.13.117-.247.247-.247h1.56c.13 0 .247.117.247.247v8.606c0 .13-.117.247-.247.247h-1.56a.256.256 0 01-.247-.247zm4.11 0v-8.606c0-.13.117-.247.247-.247h1.56c.13 0 .247.117.247.247v8.606c0 .13-.117.247-.247.247h-1.56a.256.256 0 01-.247-.247zm4.11 0v-8.606c0-.13.118-.247.248-.247h1.56c.13 0 .247.117.247.247v8.606c0 .13-.117.247-.247.247h-1.56a.256.256 0 01-.247-.247zm4.111 0v-8.606c0-.13.117-.247.247-.247h1.56c.13 0 .247.117.247.247v8.606c0 .13-.117.247-.247.247h-1.56a.256.256 0 01-.247-.247zm7.09-2.067c-.142 0-.246-.104-.246-.234v-1.183c0-.143.104-.247.247-.247h2.977c.143 0 .247.104.247.247v1.183c0 .13-.104.234-.247.234h-2.977zm8.014 2.067v-8.606c0-.13.117-.247.247-.247h1.56c.13 0 .247.117.247.247v8.606c0 .13-.117.247-.247.247h-1.56a.256.256 0 01-.247-.247zm4.11 0v-8.606c0-.13.117-.247.247-.247h1.56c.13 0 .247.117.247.247v8.606c0 .13-.117.247-.247.247h-1.56a.256.256 0 01-.247-.247zm4.111 0v-8.606c0-.13.117-.247.247-.247h1.56c.13 0 .247.117.247.247v8.606c0 .13-.117.247-.247.247h-1.56a.256.256 0 01-.247-.247zm4.11 0v-8.606c0-.13.118-.247.248-.247h1.56c.13 0 .247.117.247.247v8.606c0 .13-.117.247-.247.247h-1.56a.256.256 0 01-.247-.247zM57.248 85.786c-.143 0-.247-.104-.247-.234v-1.183c0-.143.104-.247.247-.247h2.977c.143 0 .247.104.247.247v1.183c0 .13-.104.234-.247.234h-2.977zm8.013 2.067v-8.606c0-.13.117-.247.247-.247h1.56c.13 0 .247.117.247.247v8.606c0 .13-.117.247-.247.247h-1.56a.256.256 0 01-.247-.247zm4.11 0v-8.606c0-.13.118-.247.248-.247h1.56c.13 0 .247.117.247.247v8.606c0 .13-.117.247-.247.247h-1.56a.256.256 0 01-.247-.247zm4.111 0v-8.606c0-.13.117-.247.247-.247h1.56c.13 0 .247.117.247.247v8.606c0 .13-.117.247-.247.247h-1.56a.256.256 0 01-.247-.247zm4.111 0v-8.606c0-.13.117-.247.247-.247h1.56c.13 0 .247.117.247.247v8.606c0 .13-.117.247-.247.247h-1.56a.256.256 0 01-.247-.247zm7.09-2.067c-.143 0-.247-.104-.247-.234v-1.183c0-.143.104-.247.247-.247h2.977c.143 0 .247.104.247.247v1.183c0 .13-.104.234-.247.234h-2.977zm8.013 2.067v-8.606c0-.13.117-.247.247-.247h1.56c.13 0 .247.117.247.247v8.606c0 .13-.117.247-.247.247h-1.56a.256.256 0 01-.247-.247zm4.111 0v-8.606c0-.13.117-.247.247-.247h1.56c.13 0 .247.117.247.247v8.606c0 .13-.117.247-.247.247h-1.56a.256.256 0 01-.247-.247zm4.11 0v-8.606c0-.13.118-.247.248-.247h1.56c.13 0 .247.117.247.247v8.606c0 .13-.117.247-.247.247h-1.56a.256.256 0 01-.247-.247zm4.111 0v-8.606c0-.13.117-.247.247-.247h1.56c.13 0 .247.117.247.247v8.606c0 .13-.117.247-.247.247h-1.56a.256.256 0 01-.247-.247zm7.09-2.067c-.143 0-.247-.104-.247-.234v-1.183c0-.143.104-.247.247-.247h2.977c.143 0 .247.104.247.247v1.183c0 .13-.104.234-.247.234h-2.977zm8.014 2.067v-8.606c0-.13.117-.247.247-.247h1.56c.13 0 .247.117.247.247v8.606c0 .13-.117.247-.247.247h-1.56a.256.256 0 01-.247-.247zm4.11 0v-8.606c0-.13.117-.247.247-.247h1.56c.13 0 .247.117.247.247v8.606c0 .13-.117.247-.247.247h-1.56a.256.256 0 01-.247-.247zm4.11 0v-8.606c0-.13.118-.247.248-.247h1.56c.13 0 .247.117.247.247v8.606c0 .13-.117.247-.247.247h-1.56a.256.256 0 01-.247-.247zm4.111 0v-8.606c0-.13.117-.247.247-.247h1.56c.13 0 .247.117.247.247v8.606c0 .13-.117.247-.247.247h-1.56a.256.256 0 01-.247-.247zm7.09-2.067c-.142 0-.246-.104-.246-.234v-1.183c0-.143.104-.247.247-.247h2.977c.143 0 .247.104.247.247v1.183c0 .13-.104.234-.247.234h-2.977zm8.014 2.067v-8.606c0-.13.117-.247.247-.247h1.56c.13 0 .247.117.247.247v8.606c0 .13-.117.247-.247.247h-1.56a.256.256 0 01-.247-.247zm4.11 0v-8.606c0-.13.117-.247.247-.247h1.56c.13 0 .247.117.247.247v8.606c0 .13-.117.247-.247.247h-1.56a.256.256 0 01-.247-.247z"/><g stroke="#76BAFF" stroke-linecap="square" stroke-width="2" transform="translate(14 64)"><path d="M17 0L8.766 8.234A6.953 6.953 0 007 8a7 7 0 107 7c0-.891-.173-1.74-.476-2.524L16 10V7h3l3-3V0h-5z"/><circle cx="7" cy="15" r="2"/></g><rect width="140" height="40" x="25" fill="#DFE3E8" rx="6"/><path fill="#919EAB" fill-rule="nonzero" d="M48 19h-1v-2a3 3 0 10-6 0v2h-1a1 1 0 00-1 1v5a1 1 0 001 1h8a1 1 0 001-1v-5a1 1 0 00-1-1zm-3 0h-2v-2a1 1 0 112 0v2z"/></g></svg>