<svg xmlns="http://www.w3.org/2000/svg" xmlns:xlink="http://www.w3.org/1999/xlink" width="166" height="108"><defs><circle id="a" cx="18.144" cy="18.144" r="18.144"/></defs><g fill="none" fill-rule="evenodd"><path fill="#A398D9" d="M6 39h96a6 6 0 016 6v56a6 6 0 01-6 6H6a6 6 0 01-6-6V45a6 6 0 016-6z"/><g transform="translate(10 55)"><mask id="b" fill="#fff"><use xlink:href="#a"/></mask><use fill="#FFF" xlink:href="#a"/><g mask="url(#b)"><path fill="#D9B29E" d="M13.639 19.795h7.98V31.1h-7.98z"/><path fill="#FCD7BB" d="M24.944 11.815v5.32c0 4.033-3.282 7.315-7.315 7.315s-7.315-3.282-7.315-7.315v-5.32h14.63z"/><path fill="#8E4C11" d="M10.314 11.814c0-2.203 1.686-4.591 3.76-5.332l4.925-1.759a.766.766 0 01.92.367l1.035 2.07c2.204 0 3.99 1.79 3.99 3.99v3.99a3.325 3.325 0 00-3.325-3.325h-7.98a3.325 3.325 0 00-3.325 3.325v-3.326z"/><path fill="#F4BD14" d="M32.26 33.101c0-1.105-.817-2.359-1.83-2.801l-8.81-3.855-3.991 3.99-3.977-3.99-8.82 3.855C3.82 30.742 3 31.998 3 33.1v1.987c0 .368.3.667.666.667 6.348 4.433 11.108 6.65 14.282 6.65 3.032 0 7.581-2.217 13.646-6.65a.662.662 0 00.666-.667V33.1z"/></g></g><path fill="#6554C0" d="M59 58h36a3 3 0 010 6H59a3 3 0 010-6zm27 24a3 3 0 010 6H59a3 3 0 010-6h27zm9-12a3 3 0 010 6H59a3 3 0 010-6h36z"/><g transform="translate(90)"><rect width="76" height="108" fill="#DFE3E8" rx="6"/><path fill="#C4CDD5" d="M51 81a3 3 0 010 6H15a3 3 0 010-6h36zm10-12a3 3 0 010 6H15a3 3 0 010-6h46zm0-12a3 3 0 010 6H15a3 3 0 010-6h46zm0-26a3 3 0 010 6H15a3 3 0 010-6h46zm0-12a3 3 0 010 6H15a3 3 0 010-6h46z"/></g><path fill="#439D6D" d="M82.5 18C72.357 25.607 57.143 30.679 47 30.679 47 54.344 58.834 78.857 82.5 89 106.166 78.857 118 54.344 118 30.679c-10.143 0-25.357-5.072-35.5-12.679z"/><path fill="#BCD5AB" fill-rule="nonzero" d="M92 50h-3v-3.99A5.96 5.96 0 0083.1 40h-.09A5.94 5.94 0 0077 45.9V50h-3a1 1 0 00-1 1v12a1 1 0 001 1h18a1 1 0 001-1V51a1 1 0 00-1-1zm-9 9a2 2 0 110-4 2 2 0 010 4zm4-9h-8v-4.09A3.957 3.957 0 0182.959 42h.131A3.957 3.957 0 0187 46v4z"/></g></svg>