<svg xmlns="http://www.w3.org/2000/svg" width="20" height="20"><path d="M10 15.094a2.128 2.128 0 100 4.256 2.128 2.128 0 000-4.256zm0-7.777a2.683 2.683 0 100 5.366 2.683 2.683 0 000-5.366zm-7.222.555a2.128 2.128 0 100 4.256 2.128 2.128 0 000-4.256zm14.444 0a2.128 2.128 0 100 4.256 2.128 2.128 0 000-4.256zM10 .65a2.128 2.128 0 100 4.256A2.128 2.128 0 0010 .65zm5.882 13.53a1.703 1.703 0 100 3.405 1.703 1.703 0 000-3.406zm-11.764 0a1.703 1.703 0 100 3.405 1.703 1.703 0 000-3.406zm0-11.765a1.703 1.703 0 100 3.406 1.703 1.703 0 000-3.406zm11.764 0a1.703 1.703 0 100 3.406 1.703 1.703 0 000-3.406z" fill="none" fill-rule="evenodd" stroke="#76BAFF" stroke-width="1.3"/></svg>