<svg width="496" height="416" xmlns="http://www.w3.org/2000/svg" xmlns:xlink="http://www.w3.org/1999/xlink"><defs><path d="M0 19.164V3.577A3.097 3.097 0 013.097.48h13.319a3.097 3.097 0 013.097 3.097v27.31c0 .548-.217 1.072-.604 1.46l-1.842 1.844a2.065 2.065 0 000 2.917l1.842 1.845c.387.387.604.912.604 1.459v14.61a3.097 3.097 0 01-3.097 3.097H3.097A3.097 3.097 0 010 55.022V28.689c0-.548.218-1.072.604-1.46l1.842-1.844a2.065 2.065 0 000-2.917L.604 20.623A2.065 2.065 0 010 19.164z" id="c"/><path d="M73.99 0H.029s-1.913 55.952 25.186 88.697h23.589C75.903 55.952 73.99 0 73.99 0" id="e"/><ellipse id="a" cx="4.92" cy="4.449" rx="4.024" ry="3.992"/></defs><g fill="none" fill-rule="evenodd"><ellipse fill="#F4F6F8" cx="246.5" cy="410" rx="246.5" ry="6"/><path fill="#3385D6" d="M186 7.81h197V205H186z"/><path stroke="#48A3FF" d="M195.752 17.571h177.495v177.667H195.752z"/><g stroke="#48A3FF"><path d="M195.752 38.56h177.495M195.752 58.083h177.495M195.752 77.607h177.495M195.752 97.131h177.495M195.752 116.654h177.495M195.752 136.178h177.495M195.752 155.702h177.495M195.752 175.226h177.495M352.767 18.06v177.666M333.262 18.06v177.666M313.757 18.06v177.666M294.252 18.06v177.666M274.747 18.06v177.666M255.242 18.06v177.666M235.737 18.06v177.666M216.232 18.06v177.666"/></g><path d="M198.653 0a1 1 0 011 1v11.667a1 1 0 01-1 1h-5.802a1 1 0 01-1-1V1a1 1 0 011-1h5.802zm178.47 0a1 1 0 011 1v11.667a1 1 0 01-1 1h-5.801a1 1 0 01-1-1V1a1 1 0 011-1h5.802z" fill="#76BAFF"/><g transform="translate(215.745 38.56)"><ellipse stroke="#FFF" cx="68.755" cy="68.821" rx="47.787" ry="47.833"/><ellipse stroke="#FFF" cx="68.755" cy="68.821" rx="30.233" ry="30.262"/><ellipse stroke="#FFF" cx="68.755" cy="68.821" rx="38.035" ry="38.071"/><path stroke="#FFF" d="M65.266 30.75v7.81M72.093 30.75v7.81"/><ellipse fill="#92F4EF" cx="78.942" cy="19.536" rx="1.95" ry="1.952"/><path stroke="#92F4EF" stroke-linecap="round" d="M78.942 19.524l7.916-11.71h17.86"/><path d="M136.044 17.083a2.929 2.929 0 010 5.857h-21.45a2.929 2.929 0 010-5.857h21.45zm7.802-11.714a2.929 2.929 0 010 5.857h-29.252a2.929 2.929 0 010-5.857h29.252z" fill="#92F4EF" fill-rule="nonzero"/><path stroke="#92F4EF" stroke-linecap="round" stroke-dasharray="4,4" d="M19.993 136.667V0M0 117.143h137.022M117.517 39.048v98.107"/></g><path fill="#3385D6" d="M186 222.816h117V300H186z"/><path stroke="#48A3FF" d="M195.75 232.586h97.5v57.644h-97.5z"/><g stroke="#48A3FF"><path d="M195.75 251.638h97.5M195.75 271.178h97.5M273.75 233.075v56.666M254.25 233.075v56.666M234.75 233.075v56.666M215.25 233.075v56.666"/></g><path d="M198.65 215a1 1 0 011 1v11.678a1 1 0 01-1 1h-5.8a1 1 0 01-1-1V216a1 1 0 011-1h5.8zm90.675 0a1 1 0 011 1v11.678a1 1 0 01-1 1h-5.8a1 1 0 01-1-1V216a1 1 0 011-1h5.8z" fill="#76BAFF"/><g><path fill="#3385D6" d="M46 144.78h99V243H46z"/><path stroke="#48A3FF" d="M55.802 154.505h79.396v78.77H55.802z"/><g stroke="#48A3FF"><path d="M55.802 175.413h79.396M55.802 194.863h79.396M55.802 214.312h79.396M114.613 154.991v78.77M95.01 154.991v78.77M75.406 154.991v78.77"/></g><path d="M76.366 137a1 1 0 011 1v11.615a1 1 0 01-1 1h-5.841a1 1 0 01-1-1V138a1 1 0 011-1h5.841zm62.733 0a1 1 0 011 1v11.615a1 1 0 01-1 1h-5.842a1 1 0 01-1-1V138a1 1 0 011-1h5.842z" fill="#76BAFF"/><path d="M104.984 176.35l-14.282 14.17a12.15 12.15 0 00-3.064-.402c-6.705 0-12.142 5.393-12.142 12.046 0 6.654 5.437 12.047 12.142 12.047 6.706 0 12.143-5.393 12.143-12.047 0-1.533-.3-2.994-.826-4.343l5.3-5.26V187.4h5.204l4.198-4.165v-6.883h-8.673z" stroke="#FFF" stroke-width="1.1" stroke-linecap="square"/><g transform="translate(82.267 198.266)"><mask id="b" fill="#fff"><use xlink:href="#a"/></mask><use stroke="#FFF" stroke-width="1.1" stroke-linecap="square" xlink:href="#a"/><path stroke="#FFF" opacity=".4" mask="url(#b)" d="M-8.822 14.595l27.453-27.237M-8.822 20.43L18.631-6.807"/></g></g><g><path fill="#3385D6" d="M86 7.815h80V127H86z"/><path stroke="#48A3FF" d="M95.756 17.585h60.488v99.646H95.756z"/><g stroke="#48A3FF"><path d="M95.756 38.589h60.488M95.756 58.127h60.488M95.756 77.666h60.488M95.756 97.204h60.488M135.757 18.073v99.646M116.244 18.073v99.646"/></g><path d="M97.683 0a1 1 0 011 1v11.677a1 1 0 01-1 1h-5.805a1 1 0 01-1-1V1a1 1 0 011-1h5.805zm62.439 0a1 1 0 011 1v11.677a1 1 0 01-1 1h-5.805a1 1 0 01-1-1V1a1 1 0 011-1h5.805z" fill="#76BAFF"/><g transform="translate(116.243 38.597)"><mask id="d" fill="#fff"><use xlink:href="#c"/></mask><use stroke="#FFF" xlink:href="#c"/><path stroke="#FFF" opacity=".4" mask="url(#d)" d="M-3.902 9.777l27.324-27.362M-3.902 15.638l27.324-27.361M-3.902 21.5L23.422-5.862M-3.902 27.361L23.422 0M-3.902 33.223L23.422 5.862M-3.902 39.085l27.324-27.362M-3.902 44.946l27.324-27.361M-3.902 50.808l27.324-27.362M-3.902 56.669l27.324-27.361M-3.902 62.531l27.324-27.362M-3.902 68.392l27.324-27.361M-3.902 74.254l27.324-27.362"/></g></g><g><path d="M434.036 92.772s.953 8.116-5.558 10.82c-1.112.796 1.002 3.502 2.803 3.82 0 0-.421 7.32.69 9.548 1.111 2.228 7.78 3.182 8.734 4.774v11.616l7.304 4.933 10.797-3.819 2.541-2.546s-4.446-2.069-4.446-5.888v-12.572l-6.987-16.23-5.156-6.207-6.117-1.113-4.605 2.864z" fill="#E9C09A"/><path d="M451.979 122.264c-5.565.209-9.335-.131-11.274-.389v7.39c8.074-.884 11.274-7.001 11.274-7.001" fill="#DA9656"/><path d="M431.888 110.69s1.494 1.782 3.812.796" stroke="#DA9656" stroke-linecap="round"/><path d="M434.073 103.59c-.455-.071-.693-.81-.53-1.65.16-.84.66-1.464 1.116-1.392.457.07.694.81.533 1.65-.163.84-.664 1.464-1.12 1.392z" fill="#212B36"/><path d="M467.222 164.062S479.608 190 479.767 191.75c.159 1.75-1.271 2.546-1.271 2.546s-15.879 9.707-16.355 12.572c-.476 2.864.635 11.139.635 11.139s25.406-8.753 32.076-19.415c2.222-3.659-7.304-33.735-15.085-43.441-3.812-4.774-12.545 8.91-12.545 8.91" fill="#E9C09A"/><path d="M480.373 193.015c-.533.19-.631.675-.478 1.305.148.634-.04.996.158 1.5.194.506.296.664.362.963.14.378-.091.873.177 1.376.234.44.333.8.859.805.679.01.981-.454.835-.724-.266-.502.11-.794-.08-1.326-.406-.874-.283-1.494-.203-1.884.046-.214-.22-.46-.324-.739-.103-.26.044-.43-.16-.712-.406-.554-.662-.735-1.146-.564" fill="#DA9656"/><path d="M466.387 396.868c-.793-5.888 0-13.048 0-13.048h-13.456s.795 7.16 0 13.048c-.793 5.888-2.54 9.547-2.064 10.82.47 1.257 3.422 2.511 8.692 2.544v.003l.1-.001h.1v-.002c5.27-.033 8.222-1.287 8.692-2.543.477-1.274-1.27-4.933-2.064-10.821" fill="#AAB5C0"/><path d="M422.84 385.888s-1.111 4.694-3.254 8.116c-2.144 3.421-4.605 6.683-4.605 6.683l4.366 5.728h5.162l3.096-4.455 2.223-7.639 3.334-3.818 1.271-1.989-.557-4.695-11.035 2.07z" fill="#E9C09A"/><path d="M417.347 397.39s-11.259 11.81-10.623 12.844c.635 1.035 3.096 1.194 17.07 1.194 4.129-.16 5.081-3.978 5.239-4.456.159-.477 2.78-8.354 3.494-8.354-.08 2.148 0 12.81 0 12.81h2.76s.099-8.584 1.13-14.039c1.032-5.454 1.817-6.668.63-11.193-1.186-4.525-3.408-.944-3.408-.944s-8.654 4.693-7.94 17.583c0 0-6.542.566-8.352-5.446" fill="#AAB5C0"/><path d="M458 394c.717 6.528 0 17 0 17h2.53a104.578 104.578 0 01.47-17" stroke="#8C969F" fill="#AAB5C0" stroke-linecap="round"/><g><path d="M463.729 212.437s7.78 7.32 9.527 32.145c1.747 24.823-5.08 137.964-6.034 140.352-.953 2.386-10.797 4.773-16.355 0-1.111-8.276-10.797-107.572-10.797-107.572s-16.673 33.894-16.514 36.122c.159 2.228 14.926 70.176 14.449 71.926-.476 1.75-12.861 3.66-17.308 1.592-1.85-2.798-23.342-73.04-23.66-77.018-.316-3.98 14.609-57.923 14.609-57.923l13.814-45.194 38.269 5.57z" fill="#212B36"/><path d="M440.629 276.395c.495.275 2.353-2.569 4.59-7.062 2.217-4.5 3.447-6.574 5.03-10.496 1.545-3.939 1.933-5.246 2.741-7.537.926-2.922 2.393-6.395 2.917-10.746.223-1.868.258-3.576.101-4.8a5.377 5.377 0 00-.31-1.427c-.124-.326-.248-.492-.376-.47-.357.064-.45.84-.582 1.818-.093.978-.244 2.184-.286 3.123-.116 1.799-.415 3.128-.801 4.45l-1.332 4.518c-1.761 6.371-3.801 10.221-4.936 12.477-.642 1.248-1.354 3.314-2.242 5.261-.838 1.833-1.383 2.542-2.332 4.703-1.892 4.273-2.638 5.937-2.182 6.188M422.974 311.817c.56-.08.707-.877.614-2.03-.089-1.154.134-1.723-.017-2.68-.147-.958-.231-1.265-.27-1.817-.102-.7.176-1.546-.035-2.512-.184-.838-.235-1.5-.759-1.542-.676-.058-1.036.68-.917 1.147.207.885-.191 1.31-.06 2.237.317 1.567.13 2.591.011 3.208-.068.341.174.84.25 1.34.075.472-.089.698.085 1.242.351 1.073.59 1.477 1.098 1.407" fill="#000"/></g><g><path d="M459.346 130.963c3.395-.634 10.258 0 12.164 1.096 1.59 1.343 13.496 15.135 13.496 19.75 0 4.614-13.496 14.48-16.037 15.754-2.859 8.434-5.716 20.527-3.81 27.847 1.904 7.32 3.334 11.139 4.445 14.163 1.112 3.023-8.415 12.253-28.899 8.434-20.484-3.82-28.423-12.094-27.472-15.914.954-3.818 5.24-3.818 7.147-11.297 1.905-7.48.476-30.394.476-30.394s-8.416-5.73-8.416-10.025c0-4.297 13.517-19.216 17.795-19.554 4.276-.338 8.99-.53 10.47.14 0 0 8.86 4.933 18.64 0z" fill="#F6CA43"/><path d="M428.572 144.89c-.004-.038-.195-.054-.562-.05l.066.163c.638-.423 1.966-1.38 4.096-1.867l-.203-.407c-1.065.928-2.32 2.021-3.722 3.245l.341.418c.446-.303.912-.607 1.398-.908.746-.461 1.46-.86 2.08-1.184l.705-.356c.047-.02.088-.038.122-.051.05-.032-.008.07-.019.087-.011.017-.022.034-.036.047l-.144.144a7.36 7.36 0 01-.53.45l-.853.673c-1.154.91-2.212 1.743-3.19 2.516.011.13.047.24.1.345.073.087.13.184.198.293l2.858-1.566.573-.315.147-.08-.506.275-1.15.628.004-.002.216-.137c.006.002-.034.038-.023.036-.043.036-.081.068-.117.096l-.494.381-1.692 1.286.338.487 1.122-.712c1.102-.679 2.273-1.426 4.112-2.14l-.304-.5-3.71 3.32c.003.099.018.201.04.318.032.113.194.152.317.25 1.085-.623 2.75-1.576 4.55-2.607l-.314-.509-.2.132c-1.296.849-2.517 1.758-3.286 2.844l.293.361a160.398 160.398 0 003.227-1.59c.376-.18.72-.408.851-.427.057-.014.088.043.097.074.009.028-.005.046 0 .062-.002.02.077.034.104-.073a.207.207 0 00-.047-.173c-.057-.067-.15-.087-.238-.08-.324.069-.652.221-1.101.393-.872.352-2.01.848-3.108 1.35l.334.409c.429-.573.951-1.057 1.434-1.455.667-.548 1.34-.983 1.934-1.37l-.258-.415-1.676.949-.567.306-.251.125.315-.27.223-.19 1.43-1.297-.296-.488-.27.108c-2.658 1.134-4.703 2.661-5.05 2.833l.284.412c3.562-2.668 4.923-3.69 5.557-4.165.242-.407.279-.498.307-.57-.345-.027-.382-.082-.406-.132l-3.382 1.836-.428.228-.172.09-.04.022-.011.005.115-.063.303-.166c.403-.22.8-.44 1.193-.655-.006 0 .005-.008.017-.017l.052-.038c.012-.009-.028.02-.04.022l.578-.493.522-.433c.173-.144.347-.3.513-.475.264-.27.487-.637.57-.91.054-.18.082-.342.116-.508.045-.198.045-.282.047-.348-.425.2-.83.392-1.219.577l-.756.376c-.405.207-.789.41-1.176.626-.774.434-1.571.91-2.572 1.604l.41.502.685-.619c1.14-1.035 2.116-1.923 2.941-2.674l-.23-.458c-2.407.65-3.587 1.71-4.116 2.185l-.322.29.41-.073c.375-.065.545-.119.542-.163M427.066 205.957c.043-.02-.156-.213-.052-.57l-.181-.036c-.113.59-.23 1.653.093 3.027l.391-.013.832-4.504-.507-.06c-.066.736-.133 1.514-.204 2.33-.049.601-.1 1.217-.15 1.845-.012.694.05.905.176 1.241.05.112.113.237.2.386.02.03.049.098.064.099l.034-.06.066-.12.26-.455c.217-.9.421-1.748.612-2.531l.578-2.374-.595-.036c.186 1.751.18 3.298.095 4.613l.665.062.68-5.026-.703-.055-.068 3.39-.04 2.168c.178.03.328.098.336.103l.53-1.252c.031-.065.08-.209.087-.191l-.122.6-.14.685.305-1.557.333-1.66.081-.4.018-.087-.005.024-.011.048-.038.189-.138.674-.182.884v.252l-.016.897-.015.756.575.06.814-5.05-.605-.052-.22 4.913.636.088c.285-1.199.63-2.98.818-5.017l-.604-.004c.014.144.039.39.06.636.122 1.271.236 2.484.342 3.594l.487.08c.506-1.256.477-2.457.507-3.417l-.409-.011c0 .268.028.523.077.76.067.343.178.635.284.858l.16.332.04.08c.013.035.025-.037.038-.05l.07-.157c.09-.2.168-.385.237-.588.148-.408.2-.582.24-.73.038-.146.05-.227.028-.236-.03-.011-.09.063-.176.207l-.274.489-.11.194c-.016.066-.038-.022-.054-.071l-.042-.152a2.075 2.075 0 01-.051-.305 3.64 3.64 0 01-.025-.623l-.474-.012c-.063 1.073-.133 2.269-.552 3.221l.526.087-.109-1.203-.276-3.03-.483-.003a35.784 35.784 0 01-.85 4.935l.53.072.227-4.912-.586-.05-.258 1.661c-.246 1.656-.48 3.218-.5 3.365l.51.052.1-4.747c-.176-.456-.214-.555-.236-.608l-.532 1.419c-.008.017-.034.103-.027.06l.04-.207c.026-.129.049-.24.067-.336l.092-.466-.307 1.478-.386 1.908.075-.384.114-.578c.063-.337.095-.51.126-.664.01-.308.018-.388.026-.464l.013-.214.003-.064.014-.43c.02-.549.03-.898.042-1.22l-.665-.053c-.109.773-.143 1.02-.175 1.256l-.496 3.772.684.066a29.1 29.1 0 00-.17-4.72l-.596-.036-.116.502-.487 2.047-.034.13-.015.048-.023.066c-.007.013-.01.04-.017.031a.24.24 0 01-.012-.09l.062-.918.142-1.993-.582-.07-.71 4.51.443-.015c-.374-1.366-.31-2.34-.294-2.893l-.24-.048c-.058.543.264.663.26.628M463.193 136.67c-.09-.03-.485 1.088-.763 3.18l.35.044c.19-1.067.56-2.375 1.3-3.749l-.436-.164-1.072 4.495c.032.194.071.379.125.588l.498-.776.275-.426c.042-.06.109-.177.132-.197l-.47 1.075.663-1.509.57-1.301c-.175.403-.34.79-.404.934-.05.19-.097.37-.117.453l-.405 1.601.575.183 1.883-4.681-.632-.175a21.478 21.478 0 01-1.306 4.618l.635.294 2.056-4.51-.65-.262-.188.487c-.975 2.56-1.359 4.658-1.422 4.975l.61.2 1.834-4.62-.573-.208a45.859 45.859 0 00-1.617 5.197l-.035.14-.132.534.506-.184c.525-.19.688-.664.827-1.002l.421-1.095 1.03-2.662-.534-.245c-.503.978-1.007 2.093-1.282 3.96l.573.194c.498-.88 1.052-1.89 1.739-3.573l-.591-.252a17.626 17.626 0 00-1.313 4.257l.602.196 1.53-3.191-.541-.243c-.014.036-.04.098-.063.16a14.745 14.745 0 00-.867 3.44l-.104.826.557-.609a6.65 6.65 0 001.593-3.078l-.447-.1c-.172.847-.329 1.623-.47 2.31l.362.141.816-1.48-.29-.117c-.053.267-.1.507-.14.718l-.097.495.32-.37c.523-.6.48-1.085.45-1.074-.068-.024-.147.438-.638.885l.225.125.2-.705-.314-.124-.896 1.434.414.162.54-2.295-.516-.114a6.397 6.397 0 01-1.502 2.82l.466.223c.026-.171.049-.333.071-.492.178-1.104.475-2.095.83-2.975l-.445-.202c-.55 1.129-1.055 2.16-1.554 3.181l.467.153a17.286 17.286 0 011.298-4.111l-.507-.217a30.31 30.31 0 01-1.709 3.497l.548.185c.092-.689.323-1.842.84-3.023.16-.374.348-.73.352-.746l-.509-.233c-1.015 2.573-1.655 4.692-1.908 4.445l.321.302c.905-3.536 1.489-4.792 1.649-5.268l-.483-.177-1.852 4.554.529.172c.768-3.444 1.327-4.495 1.637-5.333l-.588-.234-1.753 3.776-.303.656.632.293c.43-1.048.979-2.61 1.318-4.775l-.647-.179c-.443 1.141-1.13 2.917-1.825 4.705l.574.184c.046-.19.114-.471.18-.752l1.003-4.123a1.75 1.75 0 00-.223-.365l-.534.809-.297.446c-.019-.03-.548 1.053.462-1.22l-.728 1.664c-.218.496-.491 1.124-.811 1.859l.184-.418a611.295 611.295 0 01.522-1.169c-.002-.02.004-.073.01-.12.018-.104.033-.195.049-.28l.288-1.297-.492-.184a12.156 12.156 0 00-1.237 3.925l.407.052c.213-2.242.465-3.205.384-3.218M452.784 160.554c.047.106 1.204-.742 3.62-1.18l-.115-.315-3.687 2.05c-.23.194-.435.386-.617.578-.045.033-.016.033.024.028l.097-.003.186-.002.36.013c1.337-.479 2.75-.986 4.233-1.516l-.233-.461-3.715 2.019.23.491a19.687 19.687 0 012.776-1.013 19.167 19.167 0 012.122-.468l-.168-.524-5.805 2.855.25.544 5.743-2.235-.24-.605a68.55 68.55 0 00-6.203 3.028l.324.618a46.08 46.08 0 016.081-2.502l-.288-.635c-.27.157-.609.358-.956.562a47.92 47.92 0 01-2.477 1.329l-1.126.549.297.596c2.32-1.27 4.375-1.835 4.87-1.979l-.205-.594a45.668 45.668 0 00-5.482 2.807l.282.529 4.296-1.867 1.573-.685-.25-.524-4.589 2.653c-.068.129-.14.261-.236.471.129.034.257.07.454.144l.335-.13.193-.07c.07-.03-.049.032-.089.055l-.169.094c-.198.114-.419.239-.797.453l.303.568A28.717 28.717 0 01459 164.13l-.248-.584-3.783 2.083-.177.097.26.528a18.716 18.716 0 013.784-1.256l-.185-.492-3.309 1.92.17.437c1.202-.289 2.264-.716 3.162-1.184l-.178-.369-2.09 1.185.095.31a4.749 4.749 0 001.206-.197c.174-.052.215-.075.327-.12.048-.023.093-.045.138-.065.02-.01.052-.03.06-.028l-.024.051c-.13.282-.06.696-.028.674.024-.002.035-.082.065-.222.019-.133.102-.398.368-.845a.106.106 0 01-.004-.052c-.029.007-.075.028-.114.042l-.271.103c-.178.069-.46.16-.609.189-.331.074-.71.122-1.12.116l.104.343c.623-.324 1.33-.693 2.08-1.082l-.205-.426c-.937.458-1.994.839-3.075 1.082l.195.5 3.32-1.896-.186-.498-.351.079a19.722 19.722 0 00-3.545 1.207l.217.441 3.971-2.158-.191-.452a29.095 29.095 0 00-5.127 2.17l.255.478 4.401-2.514c.088-.13.169-.276.245-.433.044-.052-.002-.06-.055-.069l-.136-.03-.29-.067-.4.158-.344.142-.146.062c.162-.1.319-.197.307-.195l1.315-.776-.221-.46-5.91 2.563.239.446c3.62-2.093 4.827-2.457 5.428-2.746l-.176-.506c-1.756.488-2.83.96-3.564 1.283-.731.332-1.12.538-1.45.709l.262.521c3.041-1.437 3.893-2.02 4.64-2.432l-.261-.577c-2.913.975-3.862 1.455-4.744 1.828-.357.16-.736.333-1.443.683l.327.623a74.665 74.665 0 016.126-3.038l-.244-.616c-1.432.571-3.594 1.436-5.739 2.294l-.017.006.251.548 5.804-2.859-.193-.6a19.33 19.33 0 00-5.05 1.527l.274.591 1.517-.84c.832-.463 1.624-.905 2.237-1.244l-.27-.53-1.318.5c-.108.041-.21.082-.31.121l-.17.067c-.035.012-.176.073-.111.038l.349-.22 1.356-.818-.135-.367c-1.34.276-2.235.702-2.791 1.003-.556.31-.783.506-.763.54M441.094 184.55c-.042 0-.085.33-.07.953.016.62.094 1.537.364 2.677l.383-.046.035-1.07.023-.441.02-.386.098.482.2.895c-.03-.14-.095-.374-.104-.476l.467.904.258-.444-.032-1.147-.073-2.667-.554.051c.292 1.942.546 3.64.696 4.645l.602-.02a36.71 36.71 0 00.105-5.819l-.674.066.624 5.159.703-.059a31.702 31.702 0 01.077-3.852l.071-.766-.666-.029c.094 2.955.393 4.92.53 5.851l.607-.013.23-2.365c.005-.072.01-.122.015-.175l.011-.129.006-.066c.002-.005.004.03.005.045l.023.3.069 1.013.596.01.297-4.35-.632-.036a25.44 25.44 0 00.22 4.987h.637l.477-3.532.12-.907-.567-.017.29 3.04.503.02c.143-.907.277-1.755.4-2.52l-.44-.027c.056.91.206 1.704.38 2.349l.153.572.183-.554a5.275 5.275 0 00.283-1.81l-.005-.136-.104.034c-.177.06-.16.209-.097.288a.14.14 0 00.217-.019c.063-.099-.01-.165-.015-.147-.014.01-.008.06-.058.085-.07.028-.02-.039-.029-.044l-.09-.069a7.631 7.631 0 01-.452 1.691l.375.022a13.76 13.76 0 01-.264-2.283l-.509-.032-.451 2.511.547.024-.126-1.38-.157-1.66-.496-.014-.634 4.435h.496a25.922 25.922 0 01-.186-4.878l-.57-.032c-.071 1.08-.17 2.587-.284 4.35l.58.009a93.58 93.58 0 01-.044-.567l-.299-3.601a6.555 6.555 0 01-.251-.393l-.05-.087-.049.084-.083.15-.176.34-.555 5.414.511-.012c-.494-3.685-.43-4.987-.46-5.786l-.585-.025c-.304 2.898-.202 3.899-.207 4.718l.657-.054-.223-1.922-.396-3.238-.695.066c.11 1.376.175 3.533-.023 5.717l.602-.019-.1-.625c-.237-1.56-.41-2.71-.607-4.018l-.63.058.011.738.012.198c.047.217.171.771.3 1.35.06.263.117.525.174.78.057.256-.025-.104-.05-.214-.036-.157-.071-.31-.107-.46l-.35-1.514-.085-.339a1.597 1.597 0 01-.345-.209 2.24 2.24 0 00-.265.413l-.008 3.584.436-.052c-.635-2.428-.558-3.537-.697-3.527M456.134 203.375c0-.03-.194-.05-.585-.063l.026.14c.543-.146 1.481-.431 2.775-.842l-.112-.315a33.812 33.812 0 00-4.423 1.949l.16.425a41.877 41.877 0 005.412-1.611l-.22-.474c-1.533.85-3.148 1.744-4.962 2.747-.098.146-.216.318-.336.493l-.004.005c.252.034.484.07.56.091l.306-.108 2.506-.912c.203-.074.405-.146.603-.22l.297-.107c.085-.03.01-.003-.01.004l-.088.032-.683.25-2.204.81-.581.278a52.95 52.95 0 01-.253.126 1.868 1.868 0 00-.251.468.71.71 0 01.299.244l6.313-2.294-.274-.635-4.95 2.492c.032.104.077.205.128.328.04.095.09.206.163.313l.374-.128c2.401-.823 4.512-1.545 4.55-1.56l-.253-.625-5.536 2.68.212.592a28.025 28.025 0 004.92-1.737l-.25-.549-4.338 2.006.218.546.13-.045.767-.269c.123-.04.25-.084.454-.152-.137.063-.277.13-.51.24l-1.089.514.244.573 1.001-.363.176-.061c-.043.022-.093.05-.177.096-.158.09-.363.205-.666.374l.225.58a31.554 31.554 0 005.47-1.956l-.243-.49-4.745 2.613.125.432a8.492 8.492 0 003.165-.907l-.114-.362a2.404 2.404 0 00-1.472.847l-.28.341.428-.074c.8-.14 1.402-.367 1.795-.547.394-.183.584-.317.571-.343-.038-.09-.952.373-2.417.552l.162.291c.3-.33.757-.597 1.272-.66l-.128-.414a8.411 8.411 0 01-3.018.781l.145.499 4.175-2.251.589-.326-.231-.467a29.565 29.565 0 01-5.382 1.9l.174.45c1.433-.779 2.798-1.52 4.174-2.27.19-.192.364-.382.51-.564a3.518 3.518 0 01-.6-.074l-4.894 1.806.23.538 5.52-2.674c.02-.037.065-.113.119-.194a2.89 2.89 0 01.22-.296c-.468-.028-.77-.003-.83.01-3.758 1.3-4.916 1.699-5.223 1.804l.188.468 4.341-1.997-.211-.462a26.787 26.787 0 01-3.442 1.3c-.732.22-1.112.307-1.39.375l.182.505 5.56-2.634-.227-.554c-.355.115-.4.126-.44.134-.136.042-.107.026-.077.012l.253-.114.11-.051.407-.197-.28-.647-.829.314-.4.167c-.052.02-.012-.008.1-.07l.2-.1c.013-.04.042-.101.077-.166l.18-.304-1.563.286-.188.033c-.059.013.005-.008.03-.017l.095-.035.381-.14.79-.293-1.546.56-.114.031.157-.086.141-.092c.587-.333 1.15-.652 1.492-.844l-.253-.548a43.913 43.913 0 01-5.324 1.664l.18.48a38.618 38.618 0 014.32-2.04l-.131-.368c-1.33.48-2.215.813-2.715 1.022l.035.196c.398-.038.581-.074.58-.11" stroke="#F09500" fill="#F09500"/><path d="M470.953 155.467c-.563.04-.77.86-.837 2.094-.084 1.237-.398 1.798-.438 2.83-.046 1.035-.038 1.374-.121 1.963-.072.756-.533 1.579-.597 2.639-.042.924-.18 1.637.32 1.807.643.223 1.182-.46 1.203-.98.03-.983.54-1.337.638-2.357.073-1.745.455-2.806.69-3.457.13-.358-.015-.943-.014-1.502.001-.525.198-.748.097-1.37-.209-1.224-.432-1.699-.941-1.667M435.994 168.386c0 .566.133.821.331.85.198.03.293.3.46.223.164-.08.218-.152.313-.166.121-.07.266.229.435.006.146-.195.261-.304.261-.824 0-.684-.124-.988-.2-.865-.146.232-.217-.178-.37-.065-.265.268-.436-.003-.536-.17-.057-.094-.143.103-.227.132-.081.029-.116-.158-.209-.043-.186.23-.258.407-.258.922" fill="#F09500"/></g><g><path d="M460.754 81.44s-6.14 3.076-11.961 1.38c-5.824-1.698-10.163-4.986-14.186-3.502-4.022 1.486-10.057 11.71-1.483 19.062 0 0 1.059-2.406 3.07-3.043 0 0-1.587 3.713 1.906 7.533 0 0 .423-3.82 4.235-3.077 3.81.742 1.693 7.957.105 9.017 0 0 1.377 7.32 10.163 9.336s15.456-7.214 16.831-13.686c1.906-7.425-.846-14.533-.846-14.533l-7.834-8.487z" fill="#744028"/><path d="M478.432 86.559c0 5.844-4.728 10.582-10.559 10.582-5.831 0-10.56-4.738-10.56-10.582s4.729-10.583 10.56-10.583 10.56 4.74 10.56 10.583" fill="#562C18"/></g><path fill="#DFE3E8" d="M391.004 211.482L381 253.492l50.02 12.89 11.59-41.691z"/><path d="M419.625 159.503s-.595 14.106 0 27.474c.596 13.366-2.58 16.868-5.28 22.596-2.7 5.728-9.526 25.779-10.48 40.1-.953 14.322 0 20.05 3.177 22.915 0 0 1.588-1.592-1.43-6.683-.317-2.07.317-3.342.317-3.342s2.065 6.365 3.653 6.524c1.588.159 3.651-2.706 3.651-6.843 0-4.137-2.7-12.315 3.651-27.321 6.354-15.007 15.246-29.487 16.517-36.967 1.27-7.479 1.885-29.597 1.885-29.597s-11.241-4.899-15.66-8.856" fill="#E9C09A"/></g><g><path d="M80.533 325.193s-.85-74.18-64.825-148.357C74.157 256.948 76.07 325.193 76.07 325.193h4.463zM149.184 220.072s-42.083 33.062-61.425 105.121c0 0 2.76.71 2.976 0 21.892-72.06 58.449-105.121 58.449-105.121" fill="#4C9C71"/><path d="M52.332 312.652c9.285 2.225 22.301-.243 24.082.911 0 0-3.798-10.766-14.159-11.403-10.362-.635-22.316-.794-23.91-2.225-1.594-1.43 4.699 10.49 13.987 12.717zm38.69-43.493c-.637 2.99-9.724 8.135-14.565 13.684-4.842 5.55-1.028 13.686-1.028 13.686 1.146-3.339 6.666-7.63 12.405-13.353 5.738-5.723 3.188-14.017 3.188-14.017zm-51.333 9.225s5.496 10.809 12.71 12.239c7.215 1.43 19-1.747 19.236-.81 0 0-3.573-9.84-13.456-9.999-9.884-.158-17.375-.317-18.49-1.43zm-7.88-20.164s5.578 10.274 13.708 11.893c8.13 1.618 19.308-.289 21.53 1.3 0 0-5.27-10.808-15.472-11.285-10.202-.478-17.534 0-19.766-1.908zm52.125-15.1c-.957 2.542-9.086 6.517-14.028 12.239s-1.977 14.754-1.977 14.754c.252-2.891 4.688-4.104 11.489-11.257 6.801-7.153 4.516-15.737 4.516-15.737zm-54.902-3.021s4.211 8.955 12.182 10.915c7.97 1.96 15.198-1.324 17.561 0 0 0-5.606-9.166-13.735-9.326-8.131-.159-14.478-.635-16.008-1.59zm47.083-20.027c-1.117 3.41-8.608 9.145-14.187 15.332-5.58 6.187-2.054 14.131-2.054 14.131 1.613-4.797 7.952-6.806 13.53-13.166 5.58-6.357 2.711-16.297 2.711-16.297zm-20.356-15.935c-.158 2.384-5.26 8.584-5.738 16.054-.479 7.471 3.377 14.612 3.377 14.612-.45-4.622 3.478-12.068 4.434-18.744.957-6.677-2.073-11.922-2.073-11.922zM19.853 217.21s3.188 9.696 10.52 11.126c7.334 1.431 15.822-.158 18.114 1.113 0 0-6.636-9.467-13.172-9.98-6.536-.51-14.186-.67-15.462-2.26zm26.197-32.484c0 1.851-3.507 6.891-6.536 13.092-3.029 6.199 2.9 16.965 2.9 16.965.148-5.922 3.317-10.766 5.442-15.33 2.126-4.565-1.806-14.727-1.806-14.727zm-28.11 18.337s1.276 6.835 8.29 8.266c7.014 1.43 10.34-2.039 12.422-1.113 0 0-5.09-6.753-10.51-6.078-5.419.673-9.244-.281-10.201-1.075zM34.679 170c.319 2.862-3.507 8.743-5.26 15.895-1.754 7.154 3.059 13.558 3.059 13.558s2.041-8.788 3.158-11.014c1.115-2.225 2.23-8.107.956-11.603-1.276-3.497-1.913-6.836-1.913-6.836z" fill="#69B18A"/><path d="M74.002 292.793s-3.299 14.395 4.193 20.827c7.493 6.434 10.991 7.228 11.395 8.818 0 0 .72-8.867-3.902-15.719-4.623-6.853-10.618-10.509-11.686-13.926zm29.539 14.822c-7.173-.834-11.628 8.465-11.628 8.465.964-1.272 10.671.476 19.598 1.589s14.347-7.789 14.347-7.789c-1.754 1.113-15.145-1.43-22.317-2.265zm-19.238-27.778s-2.441 9.539 2.819 16.692c5.26 7.152 7.97 7.47 8.13 9.219 0 0 .957-6.835-1.435-12.717-2.39-5.882-8.268-10.194-9.514-13.194zm42.83 12.24c-.957 1.273-12.115-1.271-17.774 0-5.463 1.229-10.552 7.3-10.897 7.718l.053-.06c1.437-1.485 9.064-1.017 16.216-.983l.764.002c7.493 0 11.638-6.677 11.638-6.677zm-11.796-15.419c-4.783-.635-10.362 8.034-10.362 8.034 3.489-2.092 10.203.232 18.491 0 8.29-.233 11.478-7.08 11.478-7.08-.479 1.272-14.824-.317-19.607-.954zM92.383 258.22s-2.233 9.747 3.028 14.57c5.26 4.823 8.607 10.714 8.29 11.902 0 0 2.869-7.398 0-13.278-2.87-5.882-10.521-10.174-11.318-13.194zm29.171 3.815c-3.986-.636-8.765 7.124-8.765 7.124 3.28-1.64 8.445 1.3 15.808.954 7.362-.348 11.413-6.965 11.413-6.965-1.15 1.43-14.471-.477-18.456-1.113zm-19.607-17.962s-2.072 10.015 2.072 14.147c4.144 4.133 8.449 4.603 8.768 6.832 0 0 1.594-6.196-1.276-10.329-2.869-4.132-9.245-8.742-9.564-10.65zm17.853-11.921s-4.463 6.04-3.348 11.921c1.117 5.882 4.322 8.413 3.348 9.87 0 0 3.825-3.034 3.029-8.757-.798-5.722-3.826-11.285-3.029-13.034zm13.39 14.465c-6.216-1.59-10.252 5.039-10.252 5.039 2.133-1.232 8.499 2.272 14.536 1 6.036-1.27 7.99-6.04 7.99-6.04s-6.057 1.59-12.274 0zm-2.231-30.202s-4.463 5.723-4.144 11.127c.318 5.405 4.318 11.13 2.925 12.888l.04-.04c.444-.452 4.358-4.597 4.208-10.145-.16-5.883-3.029-12.08-3.029-13.83zm10.202 17.008c-4.305-.794-8.45 4.868-8.45 4.868 2.973-2.14 8.61 1.332 12.753 1.808 4.146.476 6.536-3.656 6.536-3.656s-6.536-2.225-10.84-3.02zm-.478-26.052c-3.348 1.606-3.667 9.998-2.038 14.767 1.63 4.768 0 8.001 0 8.001 4.703-1.42 5.863-10.545 3.711-13.723-2.152-3.18-1.673-9.045-1.673-9.045z" fill="#75C464"/><g transform="matrix(-1 0 0 1 120.768 322.438)"><mask id="f" fill="#fff"><use xlink:href="#e"/></mask><use fill="#C4CDD5" xlink:href="#e"/><path d="M74.453 27.11v3.904H.082V27.11h74.371zm0-8.782v3.904H.082v-3.904h74.371zm0-8.782v3.903H.082V9.546h74.371z" fill="#919EAB" opacity=".5" mask="url(#f)"/></g></g></g></svg>