<svg width="308" height="354" fill="none" xmlns="http://www.w3.org/2000/svg"><path d="M128.63 60.585c0 8.736-5.559 18.955-12.388 22.926-6.829 3.918-12.388.053-12.388-8.683" stroke="#66CBFF" stroke-width="2.103" stroke-miterlimit="10" stroke-linecap="round" stroke-linejoin="round"/><path d="M46.298 170.835c-2.687-9.154 5.147-16.112 10.97-12.776.583.317 1.112.741 1.642 1.164 2.382-5.347 7.358-7.094 13.129-3.759 7.464 4.289 13.605 15.619 14.505 26.103 3.97 3.123 7.04 9.636 7.04 15.354 0 6.036-3.387 9.054-7.675 6.989v.053L57.32 187.444l-51.88-30.18A6.892 6.892 0 012 151.281V95.688c0-3.018 3.282-4.924 5.93-3.441l140.87 81.325a10.518 10.518 0 0010.588 0l47.698-27.479c2.7-1.589 6.035-1.589 8.788-.053l20.858 10.324c1.853.9 4.13.265 5.188-1.535l24.988-40.98c1.006-1.959 2.594-3.601 4.5-4.713l27.21-15.672c3.6-2.064 3.6-7.2 0-9.265L157.324 2.874a6.504 6.504 0 00-6.512 0L81.356 43.007c-1.959 1.165-3.23 3.282-3.23 5.56v11.912c0 3.23 3.495 5.242 6.3 3.653L134.93 34.96c1.059-.635 2.435-.37 3.23.635 3.07 3.812 4.87 9.53 4.87 16.784 0 13.978-6.564 29.703-15.988 40.398" stroke="#F3D6FF" stroke-width="2.103" stroke-miterlimit="10" stroke-linecap="round" stroke-linejoin="round"/><path d="M135.089 47.454c.9 2.383 1.376 5.295 1.376 8.63 0 14.243-9.052 31.027-20.275 37.433-10.218 5.877-18.688 1.06-20.064-10.695a2.29 2.29 0 00-3.388-1.694l-65.645 38.015c-2.7 1.588-6.14-.371-6.14-3.547V85.099c0-2.86 3.07-4.66 5.558-3.23l124.566 71.107a6.47 6.47 0 006.352 0L263.255 92.67c2.329-1.324 2.329-4.712 0-6.036l-64.798-37.433c-2.7-1.535-6.035.37-6.035 3.495V217.57c0 2.541 1.377 4.871 3.547 6.142l86.556 49.981c2.276 1.323 2.276 4.606 0 5.877l-102.067 58.982" stroke="#fff" stroke-width="2.103" stroke-miterlimit="10" stroke-linecap="round" stroke-linejoin="round"/><path d="M144.142 231.548v-9.637c.106-9.795-5.453-14.507-12.335-10.536-6.882 3.971-12.546 15.143-12.652 24.938v9.318" stroke="#fff" stroke-width="2.103" stroke-miterlimit="10" stroke-linecap="round" stroke-linejoin="round"/><path d="M148.96 264.321c0 2.224-1.324 4.712-2.859 5.612l-29.328 16.89c-1.536.9-2.806-.159-2.806-2.382l.317-31.715c0-2.224 1.324-4.712 2.859-5.612l28.746-16.625c1.8-1.059 3.282.158 3.229 2.647l-.158 31.185z" stroke="#66CBFF" stroke-width="2.103" stroke-miterlimit="10" stroke-linecap="round" stroke-linejoin="round"/><path d="M135.884 252.302c.053-3.336-1.853-4.924-4.182-3.547-2.33 1.323-4.235 5.135-4.288 8.418 0 2.224.794 3.653 2.064 3.971l-.053 8.471 4.235-2.435.053-8.472c1.271-1.8 2.171-4.182 2.171-6.406z" stroke="#fff" stroke-width="2.103" stroke-miterlimit="10" stroke-linecap="round" stroke-linejoin="round"/><path d="M155.629 352L9.835 269.298c-3.494-1.959-3.494-6.989-.053-9.001l141.559-81.748a5.93 5.93 0 015.929 0l144.207 82.913c2.329 1.324 5.241-.318 5.241-3.018v-10.218c0-2.383-2.594-3.865-4.659-2.701l-139.071 80.267c-3.865 2.223-8.682-.583-8.682-5.03v-52.364a6.896 6.896 0 00-3.441-5.983L8.141 180.349c-2.753-1.589-2.753-5.56 0-7.148l138.118-79.79c3.547-2.065 8.047.53 8.047 4.66v52.999" stroke="#656E76" stroke-width="2.103" stroke-miterlimit="10" stroke-linecap="round" stroke-linejoin="round"/><path d="M204.227 247.537l-23.187-13.395-15.935 9.159 23.24 13.396-9.741 5.612 37.111 1.006-1.747-21.39-9.741 5.612z" stroke="#CDA5DC" stroke-width="2.103" stroke-miterlimit="10" stroke-linecap="round" stroke-linejoin="round"/><path d="M268.548 116.126v36.638c0 1.8-.953 3.442-2.541 4.342l-50.239 29.014c-1.959 1.112-4.394-.265-4.394-2.541v-37.062c0-1.801.953-3.495 2.541-4.395l50.186-28.591c2.065-1.059 4.447.371 4.447 2.595z" stroke="#fff" stroke-width="2.103" stroke-miterlimit="10" stroke-linecap="round" stroke-linejoin="round"/><path d="M66.123 151.935c-2.99-12.642-9.33-16.273-13.513-18.761-6.035-3.495-11.276-1.641-13.764 3.971-.582-.477-1.165-.847-1.747-1.218-6.141-3.547-11.064.477-11.064 8.948s4.976 18.213 11.064 21.761l29.964 17.313v-.053" stroke="#66CBFF" stroke-width="2.103" stroke-miterlimit="10" stroke-linecap="round" stroke-linejoin="round"/><path d="M114.02 73.24a4.288 4.288 0 100-8.578 4.288 4.288 0 000 8.577z" fill="#fff"/><path d="M68.014 252.25l-.264-.265c-1.006-.9-1.694-2.33-1.8-3.6a31.578 31.578 0 00-.635-4.236c-.318-1.377.106-2.542.953-2.965l.105-.053c1.112-.582 1.324-2.277.53-4.024l-.9-2.012c-.794-1.694-2.277-2.912-3.547-2.859h-.212c-1.006.053-2.17-.688-3.017-1.906a40.114 40.114 0 00-3.177-3.971c-1.006-1.112-1.588-2.647-1.482-3.918v-.106c.159-1.588-.794-3.494-2.17-4.553l-1.589-1.165c-1.376-1.006-2.753-.847-3.335.423l-.265.636c-.423.953-1.323 1.271-2.382.9-1.006-.371-2.012-.582-3.017-.741-1.06-.159-2.224-1.112-2.965-2.383l-.477-.847c-.952-1.694-2.54-2.7-3.758-2.383l-1.377.371c-1.164.318-1.64 1.853-1.058 3.6l.37 1.059c.424 1.377.265 2.595-.476 3.23a12.018 12.018 0 00-1.959 2.33c-.582.9-1.694 1.006-2.806.317l-.423-.264c-1.43-.848-2.753-.424-3.124 1.006l-.423 1.641c-.37 1.376.37 3.335 1.64 4.606l2.542 2.436s.265 3.918.688 6.141c.318 1.377-.106 2.542-.953 2.965l-.476.265c-1.112.53-1.324 2.277-.582 4.024l.9 2.012c.74 1.694 2.276 2.912 3.546 2.912l.742-.053c1.005-.053 2.17.688 3.017 1.906a48.943 48.943 0 002.435 3.124c.9 1.059 1.43 2.435 1.377 3.653l-.053 1.165c-.053 1.588.953 3.547 2.33 4.5l1.64 1.112c1.377.953 2.753.636 3.23-.635l.158-.424c.37-1.059 1.324-1.482 2.489-1.059 1.164.477 2.382.795 3.546 1.006 1.06.159 2.224 1.112 2.965 2.436l.265.476c.9 1.695 2.54 2.701 3.758 2.383l1.377-.371c1.164-.317 1.64-1.853 1.059-3.6l-.16-.476c-.423-1.377-.264-2.648.477-3.283a12.769 12.769 0 002.224-2.541c.582-.901 1.64-1.059 2.752-.424l.106.053c1.43.794 2.753.318 3.07-1.165l.371-1.694c.265-1.589-.476-3.548-1.8-4.712zm-20.434-1.536c-4.288-1.323-8.206-6.618-8.788-11.807-.53-5.189 2.488-8.259 6.776-6.936 4.288 1.324 8.206 6.619 8.788 11.807.53 5.189-2.488 8.26-6.776 6.936z" stroke="#66CBFF" stroke-width="2.103" stroke-miterlimit="10" stroke-linecap="round" stroke-linejoin="round"/><path d="M281.518 257.332l-25.464 14.719" stroke="#656E76" stroke-width="2.103" stroke-miterlimit="10" stroke-linecap="round" stroke-linejoin="round"/><path d="M117.143 247.114l7.835-4.501" stroke="#66CBFF" stroke-width="2.103" stroke-miterlimit="10" stroke-linecap="round" stroke-linejoin="round"/><path d="M131.701 248.702s-2.647 1.641-3.388 4.395" stroke="#fff" stroke-width="2.103" stroke-miterlimit="10" stroke-linecap="round" stroke-linejoin="round"/><path d="M306.665 111.678v104.833a8.85 8.85 0 01-4.447 7.677l-122.13 70.577c-3.018 1.747-6.724-.423-6.724-3.918v-73.224c0-4.765-2.541-9.107-6.67-11.437l-52.674-29.755" stroke="#66CBFF" stroke-width="2.103" stroke-miterlimit="10" stroke-linecap="round" stroke-linejoin="round"/><path d="M84.056 247.113v40.504a5.963 5.963 0 003.017 5.189l48.175 27.214" stroke="#656E76" stroke-width="2.103" stroke-miterlimit="10" stroke-linecap="round" stroke-linejoin="round"/><path d="M192.369 191.573v11.966" stroke="#fff" stroke-width="2.103" stroke-miterlimit="10" stroke-linecap="round" stroke-linejoin="round"/><path d="M256.901 192.844l-5.4 8.418-5.399 8.419 5.399 2.117 5.4 2.171m23.77-34.414l5.4 2.17 5.4 2.118-5.4 8.419-5.4 8.418m-9-24.197l-6.193 38.439" stroke="#656E76" stroke-width="2.103" stroke-miterlimit="10" stroke-linecap="round" stroke-linejoin="round"/><path d="M71.827 129.202l13.181 7.571m-68.503 26.898l8.788 5.136m-7.729-70.949l6.83 3.971m11.328 6.514l9.052 5.241" stroke="#CDA5DC" stroke-width="2.103" stroke-miterlimit="10" stroke-linecap="round" stroke-linejoin="round"/><path d="M89.597 117.851l15.345 8.811" stroke="#fff" stroke-width="2.103" stroke-miterlimit="10" stroke-linecap="round" stroke-linejoin="round"/></svg>