<svg xmlns="http://www.w3.org/2000/svg" width="25" height="31"><g fill="none" fill-rule="evenodd"><path stroke="#0572ec" stroke-linecap="round" stroke-width="2" d="M1.035 29.868l3.786-15.195a1.023 1.023 0 00-.364-1.08l-3.058-2.294A1.014 1.014 0 011 10.487V6.63c0-.385.212-.736.544-.902l2.16-1.08a.889.889 0 011.207.444A.979.979 0 015 5.5c0 .454.353.822.787.822.15 0 .298-.045.424-.13l1.347-.897C7.833 5.11 8 4.793 8 4.452V3c0-1.105.858-2 1.917-2h5.166C16.142 1 17 1.895 17 3v1.452c0 .341.167.66.442.843l1.347.897a.768.768 0 001.087-.25A.848.848 0 0020 5.5c0-.522.405-.945.905-.945.136 0 .27.032.391.093l2.16 1.08c.332.166.544.517.544.902v3.857c0 .322-.149.624-.399.812l-3.058 2.294a1.023 1.023 0 00-.364 1.08l3.786 15.195"/><path stroke="#0572ec" stroke-linecap="round" stroke-width="2" d="M2.917 11c2.555-1.333 5.75-2 9.583-2s7.028.667 9.583 2m-17.25 3c2.556-.667 5.111-1 7.667-1s5.111.333 7.667 1"/><path fill="#0572ec" d="M12 19h1a3 3 0 013 3v8l2 1H7l2-1v-8a3 3 0 013-3z"/></g></svg>